<svg version="1.1" xmlns="http://www.w3.org/2000/svg" viewBox="0 0 1730.618505980055 649.6142495186351" width="1730.618505980055" height="649.6142495186351">
  <!-- svg-source:excalidraw -->
  
  <defs>
    <style class="style-fonts">
      @font-face {
        font-family: "Virgil";
        src: url("https://excalidraw.com/Virgil.woff2");
      }
      @font-face {
        font-family: "Cascadia";
        src: url("https://excalidraw.com/Cascadia.woff2");
      }
      @font-face {
        font-family: "Assistant";
        src: url("https://excalidraw.com/Assistant-Regular.woff2");
      }
    </style>
    
  </defs>
  <rect x="0" y="0" width="1730.618505980055" height="649.6142495186351" fill="#ffffff"></rect><g stroke-linecap="round" transform="translate(10 10) rotate(0 855.3092529900275 314.80712475931756)"><path d="M32 0 C382.6 -0.74, 735.08 -0.49, 1678.62 0 M32 0 C672.77 -0.25, 1313.71 0.15, 1678.62 0 M1678.62 0 C1699.34 -0.15, 1710.57 8.76, 1710.62 32 M1678.62 0 C1698.43 -2.02, 1712.29 9.75, 1710.62 32 M1710.62 32 C1708.82 149.15, 1708.93 266.39, 1710.62 597.61 M1710.62 32 C1708.26 232.25, 1708.69 432.74, 1710.62 597.61 M1710.62 597.61 C1711.48 619.35, 1698.61 629.45, 1678.62 629.61 M1710.62 597.61 C1711.27 620.38, 1701.06 627.88, 1678.62 629.61 M1678.62 629.61 C1320.34 628.94, 963.47 628.16, 32 629.61 M1678.62 629.61 C1178.69 630.43, 679.32 629.96, 32 629.61 M32 629.61 C8.68 627.72, -1.65 617.63, 0 597.61 M32 629.61 C11.9 630.52, -1.79 621.06, 0 597.61 M0 597.61 C-2.12 457.51, -0.78 318.24, 0 32 M0 597.61 C1.04 461.98, 0.66 326.45, 0 32 M0 32 C-1.63 9.6, 12.5 1.26, 32 0 M0 32 C1.64 9.53, 11.41 2.08, 32 0" stroke="#1e1e1e" stroke-width="2" fill="none"></path></g><g transform="translate(696.9211825471116 75.4200884720201) rotate(0 146.24166870117188 16.099999999999994)"><text x="0" y="0" font-family="Helvetica, Segoe UI Emoji" font-size="28px" fill="#1e1e1e" text-anchor="start" style="white-space: pre;" direction="ltr" dominant-baseline="text-before-edge">Onlyever-obsidian-sync</text></g><g stroke-linecap="round" transform="translate(977.1092758184891 182.63289597822393) rotate(0 345.40524907022836 169.9812326796743)"><path d="M32 0 C250.96 2.05, 471.42 0.96, 658.81 0 M32 0 C187.61 1.43, 342.16 1.07, 658.81 0 M658.81 0 C679.63 -0.5, 692.3 11.81, 690.81 32 M658.81 0 C680.65 -1.39, 692.9 9.55, 690.81 32 M690.81 32 C691.7 122.46, 691.65 213.99, 690.81 307.96 M690.81 32 C692.91 124.83, 692.73 217.78, 690.81 307.96 M690.81 307.96 C690.64 329.28, 678.24 340.38, 658.81 339.96 M690.81 307.96 C692.11 327.94, 679.43 340.21, 658.81 339.96 M658.81 339.96 C441.29 339.96, 223.95 339.01, 32 339.96 M658.81 339.96 C439.17 339.89, 219.47 340.45, 32 339.96 M32 339.96 C8.67 340.65, 1.8 330.45, 0 307.96 M32 339.96 C10.67 339.42, 1.65 329.19, 0 307.96 M0 307.96 C0.78 217.37, 1.44 124.69, 0 32 M0 307.96 C-1.35 201.41, -1.15 96.1, 0 32 M0 32 C-0.46 9.99, 12.57 1.22, 32 0 M0 32 C1.46 12.77, 8.61 1.07, 32 0" stroke="#1e1e1e" stroke-width="2" fill="none"></path></g><g stroke-linecap="round" transform="translate(65.22960663924778 192.63289597822393) rotate(0 345.40524907022814 169.9812326796743)"><path d="M32 0 C199.54 2.31, 365.66 0.99, 658.81 0 M32 0 C247.74 2.28, 463.22 2.06, 658.81 0 M658.81 0 C680.36 -1.42, 690.98 10.38, 690.81 32 M658.81 0 C680.68 -0.35, 692.03 10.35, 690.81 32 M690.81 32 C688.58 104.38, 687.26 175.74, 690.81 307.96 M690.81 32 C690.25 118.2, 690.69 204.58, 690.81 307.96 M690.81 307.96 C689.86 329.31, 681.22 340.34, 658.81 339.96 M690.81 307.96 C692.05 329.39, 681.61 341.72, 658.81 339.96 M658.81 339.96 C431.58 337.79, 203.97 337.79, 32 339.96 M658.81 339.96 C530.48 340.74, 401.31 340.21, 32 339.96 M32 339.96 C9.42 339.83, 1.06 329.17, 0 307.96 M32 339.96 C9.02 339.92, 1.28 329.68, 0 307.96 M0 307.96 C2.53 226.4, 1.69 140.61, 0 32 M0 307.96 C1.15 224.83, 1.72 140.54, 0 32 M0 32 C-0.48 9.24, 10.01 -0.43, 32 0 M0 32 C-1.96 11.2, 9.76 -0.07, 32 0" stroke="#1e1e1e" stroke-width="2" fill="none"></path></g><g transform="translate(93.8315083145535 235.90531074789908) rotate(0 311.6833190917969 87.5)"><text x="0" y="0" font-family="Virgil, Segoe UI Emoji" font-size="28px" fill="#1e1e1e" text-anchor="start" style="white-space: pre;" direction="ltr" dominant-baseline="text-before-edge">Only ever plugin </text><text x="0" y="35" font-family="Virgil, Segoe UI Emoji" font-size="28px" fill="#1e1e1e" text-anchor="start" style="white-space: pre;" direction="ltr" dominant-baseline="text-before-edge">- Handles user events and interaction </text><text x="0" y="70" font-family="Virgil, Segoe UI Emoji" font-size="28px" fill="#1e1e1e" text-anchor="start" style="white-space: pre;" direction="ltr" dominant-baseline="text-before-edge">- Handles marking notes for sync</text><text x="0" y="105" font-family="Virgil, Segoe UI Emoji" font-size="28px" fill="#1e1e1e" text-anchor="start" style="white-space: pre;" direction="ltr" dominant-baseline="text-before-edge">- Preparing and parsing content</text><text x="0" y="140" font-family="Virgil, Segoe UI Emoji" font-size="28px" fill="#1e1e1e" text-anchor="start" style="white-space: pre;" direction="ltr" dominant-baseline="text-before-edge">- Making sync request and handling responses</text></g><g transform="translate(999.2773518542463 245.90531074789908) rotate(0 323.50833129882835 105)"><text x="0" y="0" font-family="Virgil, Segoe UI Emoji" font-size="28px" fill="#1e1e1e" text-anchor="start" style="white-space: pre;" direction="ltr" dominant-baseline="text-before-edge">Atlas serverless backend</text><text x="0" y="35" font-family="Virgil, Segoe UI Emoji" font-size="28px" fill="#1e1e1e" text-anchor="start" style="white-space: pre;" direction="ltr" dominant-baseline="text-before-edge">- Handles incoming requests from plugin</text><text x="0" y="70" font-family="Virgil, Segoe UI Emoji" font-size="28px" fill="#1e1e1e" text-anchor="start" style="white-space: pre;" direction="ltr" dominant-baseline="text-before-edge">- User and request verification</text><text x="0" y="105" font-family="Virgil, Segoe UI Emoji" font-size="28px" fill="#1e1e1e" text-anchor="start" style="white-space: pre;" direction="ltr" dominant-baseline="text-before-edge">- User token generation</text><text x="0" y="140" font-family="Virgil, Segoe UI Emoji" font-size="28px" fill="#1e1e1e" text-anchor="start" style="white-space: pre;" direction="ltr" dominant-baseline="text-before-edge">- Attempting data sync</text><text x="0" y="175" font-family="Virgil, Segoe UI Emoji" font-size="28px" fill="#1e1e1e" text-anchor="start" style="white-space: pre;" direction="ltr" dominant-baseline="text-before-edge">- Send responses based on data sync attempt</text></g><g stroke-linecap="round"><g transform="translate(759.6334916106712 298.16863254655686) rotate(0 110.69164486560771 -0.826057051235864)"><path d="M0.3 1.2 C37.28 0.69, 184.82 -2.12, 221.63 -2.65 M-1 0.78 C35.86 0.35, 183.93 -1.36, 220.81 -1.63" stroke="#1e1e1e" stroke-width="2" fill="none"></path></g><g transform="translate(759.6334916106712 298.16863254655686) rotate(0 110.69164486560771 -0.826057051235864)"><path d="M197.4 7.15 C205.91 5.04, 208.81 1.82, 220.81 -1.63 M197.4 7.15 C204.41 5.02, 210.78 1.63, 220.81 -1.63" stroke="#1e1e1e" stroke-width="2" fill="none"></path></g><g transform="translate(759.6334916106712 298.16863254655686) rotate(0 110.69164486560771 -0.826057051235864)"><path d="M197.23 -9.95 C205.85 -7.27, 208.8 -5.71, 220.81 -1.63 M197.23 -9.95 C204.29 -7.43, 210.71 -6.16, 220.81 -1.63" stroke="#1e1e1e" stroke-width="2" fill="none"></path></g></g><mask></mask><g stroke-linecap="round"><g transform="translate(974.4083249319997 410.425076129467) rotate(0 -108.21347371189995 3.30422820494357)"><path d="M0.92 0.84 C-35 2.17, -179.82 6.12, -215.98 7.17 M-0.06 0.24 C-36.05 1.28, -180.6 4.54, -216.69 5.34" stroke="#1e1e1e" stroke-width="2" fill="none"></path></g><g transform="translate(974.4083249319997 410.425076129467) rotate(0 -108.21347371189995 3.30422820494357)"><path d="M-193.4 -3.74 C-198.14 -0.44, -204.7 1.85, -216.69 5.34 M-193.4 -3.74 C-202.17 -0.3, -208.66 1.39, -216.69 5.34" stroke="#1e1e1e" stroke-width="2" fill="none"></path></g><g transform="translate(974.4083249319997 410.425076129467) rotate(0 -108.21347371189995 3.30422820494357)"><path d="M-193.01 13.36 C-197.74 12.19, -204.41 10.01, -216.69 5.34 M-193.01 13.36 C-201.86 10.95, -208.48 6.79, -216.69 5.34" stroke="#1e1e1e" stroke-width="2" fill="none"></path></g></g><mask></mask></svg>