<svg version="1.1" xmlns="http://www.w3.org/2000/svg" viewBox="0 0 1264.8866954216473 733.0183229059501" width="1264.8866954216473" height="733.0183229059501">
  <!-- svg-source:excalidraw -->
  
  <defs>
    <style class="style-fonts">
      @font-face {
        font-family: "Virgil";
        src: url("https://excalidraw.com/Virgil.woff2");
      }
      @font-face {
        font-family: "Cascadia";
        src: url("https://excalidraw.com/Cascadia.woff2");
      }
      @font-face {
        font-family: "Assistant";
        src: url("https://excalidraw.com/Assistant-Regular.woff2");
      }
    </style>
    
  </defs>
  <rect x="0" y="0" width="1264.8866954216473" height="733.0183229059501" fill="#ffffff"></rect><g stroke-linecap="round" transform="translate(19.368167375419034 198.21209935692303) rotate(0 601.1722162820101 262.4031117745135)"><path d="M32 0 C392.56 1.64, 752.75 1.48, 1170.34 0 M32 0 C380.74 0.16, 729.66 -0.28, 1170.34 0 M1170.34 0 C1190.69 1.77, 1202.16 10.09, 1202.34 32 M1170.34 0 C1192.05 0.27, 1200.53 8.42, 1202.34 32 M1202.34 32 C1201.62 156.82, 1202.61 282.6, 1202.34 492.81 M1202.34 32 C1201.7 155.34, 1201.81 278.52, 1202.34 492.81 M1202.34 492.81 C1201.83 513.73, 1189.72 526.23, 1170.34 524.81 M1202.34 492.81 C1201.03 514.92, 1190.69 526.46, 1170.34 524.81 M1170.34 524.81 C747.96 522.23, 326.49 522.63, 32 524.81 M1170.34 524.81 C773.54 523.96, 376.28 523.89, 32 524.81 M32 524.81 C12.63 524.63, -1.8 513.06, 0 492.81 M32 524.81 C9.37 526.27, 1.29 512.55, 0 492.81 M0 492.81 C0.27 324.35, -0.99 156.77, 0 32 M0 492.81 C1.1 355.87, 0.8 218.59, 0 32 M0 32 C-0.78 8.94, 9.79 -1.26, 32 0 M0 32 C0.13 9.54, 10.53 -0.19, 32 0" stroke="#1e1e1e" stroke-width="2" fill="none"></path></g><g stroke-linecap="round" transform="translate(61.25822687220443 249.5527453257377) rotate(0 562.0621650746793 74.49905781501138)"><path d="M32 0 C438.45 -2.19, 844.61 -2.11, 1092.12 0 M32 0 C347.33 -3.85, 662.73 -3.56, 1092.12 0 M1092.12 0 C1113.93 1.72, 1123.32 12.29, 1124.12 32 M1092.12 0 C1113.72 1.71, 1124.8 9.67, 1124.12 32 M1124.12 32 C1123.87 61.09, 1126.65 88.84, 1124.12 117 M1124.12 32 C1124.31 58.72, 1123.11 86.29, 1124.12 117 M1124.12 117 C1123.85 139.68, 1113.37 148.02, 1092.12 149 M1124.12 117 C1126.05 139, 1111.85 149.97, 1092.12 149 M1092.12 149 C703.18 146.68, 313.48 147.99, 32 149 M1092.12 149 C878.69 148.96, 665.87 149.22, 32 149 M32 149 C9.83 147.14, 1.32 138.55, 0 117 M32 149 C12.6 148.93, -1.12 136.61, 0 117 M0 117 C-1.46 94.12, 0.12 72.94, 0 32 M0 117 C0.13 99.65, 1.33 83.36, 0 32 M0 32 C-1.9 11.42, 10.69 1.65, 32 0 M0 32 C1.16 9.41, 12.56 1.7, 32 0" stroke="#1e1e1e" stroke-width="2" fill="none"></path></g><g stroke-linecap="round" transform="translate(55.37172466229549 439.61351789608085) rotate(0 112.01144526003372 76.77985498943787)"><path d="M32 0 C66.06 1.41, 99.85 -0.16, 192.02 0 M32 0 C70.89 1.66, 112.62 1.61, 192.02 0 M192.02 0 C215.11 -1.35, 223.45 11.15, 224.02 32 M192.02 0 C211.88 -0.27, 222.74 12.66, 224.02 32 M224.02 32 C223.85 55.5, 224.29 75.43, 224.02 121.56 M224.02 32 C224.75 55.56, 225.1 80.83, 224.02 121.56 M224.02 121.56 C222.22 144.7, 214.79 151.98, 192.02 153.56 M224.02 121.56 C222.71 143.45, 211.19 151.62, 192.02 153.56 M192.02 153.56 C156.17 154.99, 120.13 154.37, 32 153.56 M192.02 153.56 C134.65 153.28, 79.76 151.82, 32 153.56 M32 153.56 C12.59 152.13, -1.92 140.94, 0 121.56 M32 153.56 C10.62 155.69, 1.08 145.14, 0 121.56 M0 121.56 C-0.6 102.99, 0.91 81.97, 0 32 M0 121.56 C-0.29 100.5, 0.38 78.94, 0 32 M0 32 C-0.66 8.76, 10.58 -1.68, 32 0 M0 32 C-0.2 10.05, 10.19 -0.21, 32 0" stroke="#1e1e1e" stroke-width="2" fill="none"></path></g><g stroke-linecap="round" transform="translate(641.409011930723 439.61351789608085) rotate(0 276.4839471608443 117.18904726679199)"><path d="M32 0 C211.59 0.79, 392.09 -0.24, 520.97 0 M32 0 C219.14 -0.51, 406.04 -0.48, 520.97 0 M520.97 0 C542.89 -1.96, 554.68 9.93, 552.97 32 M520.97 0 C544.02 -0.91, 554.46 9.61, 552.97 32 M552.97 32 C552.62 74.41, 553.72 117.71, 552.97 202.38 M552.97 32 C553.59 78.81, 552.84 124.09, 552.97 202.38 M552.97 202.38 C551.87 221.74, 543.03 234.12, 520.97 234.38 M552.97 202.38 C554.11 225.64, 541.2 232.61, 520.97 234.38 M520.97 234.38 C401.82 236.24, 283.94 236.55, 32 234.38 M520.97 234.38 C416.74 233.66, 312.03 233.2, 32 234.38 M32 234.38 C9.81 232.55, 1.6 225.17, 0 202.38 M32 234.38 C9.63 236.04, -1.89 222.36, 0 202.38 M0 202.38 C-1.85 160.44, -0.26 121.17, 0 32 M0 202.38 C-1.1 138.67, -0.37 77.58, 0 32 M0 32 C1.06 12.14, 11.52 -1.42, 32 0 M0 32 C0.26 9.2, 9.15 1.48, 32 0" stroke="#1e1e1e" stroke-width="2" fill="none"></path></g><g stroke-linecap="round"><g transform="translate(97.67425924177951 438.19565150038414) rotate(0 0.4038911696707146 -17.01439674835956)"><path d="M0.54 -0.26 C0.56 -5.97, 0.41 -28.21, 0.37 -33.88 M0.15 0.8 C0.32 -5.12, 1.18 -29.01, 1.39 -34.76" stroke="#1e1e1e" stroke-width="2" fill="none"></path></g><g transform="translate(97.67425924177951 438.19565150038414) rotate(0 0.4038911696707146 -17.01439674835956)"><path d="M6.63 -18.57 C4.35 -24.82, 3.18 -30.5, 1.39 -34.76 M6.63 -18.57 C5.32 -22.62, 3.74 -27.33, 1.39 -34.76" stroke="#1e1e1e" stroke-width="2" fill="none"></path></g><g transform="translate(97.67425924177951 438.19565150038414) rotate(0 0.4038911696707146 -17.01439674835956)"><path d="M-5.01 -18.99 C-3.25 -25.15, -0.4 -30.69, 1.39 -34.76 M-5.01 -18.99 C-3.24 -22.98, -1.76 -27.58, 1.39 -34.76" stroke="#1e1e1e" stroke-width="2" fill="none"></path></g></g><mask></mask><g stroke-linecap="round"><g transform="translate(831.7635989053879 436.77778510468755) rotate(0 -0.6814529388884694 -17.72332994620791)"><path d="M0.47 -0.21 C0.19 -6.22, -1.14 -30.02, -1.38 -35.93 M0.05 -0.79 C-0.33 -6.76, -1.62 -29.75, -1.82 -35.48" stroke="#1e1e1e" stroke-width="2" fill="none"></path></g><g transform="translate(831.7635989053879 436.77778510468755) rotate(0 -0.6814529388884694 -17.72332994620791)"><path d="M5.03 -19.12 C2.24 -24.93, -0.63 -30.13, -1.82 -35.48 M5.03 -19.12 C3.2 -23.56, 0.98 -27.73, -1.82 -35.48" stroke="#1e1e1e" stroke-width="2" fill="none"></path></g><g transform="translate(831.7635989053879 436.77778510468755) rotate(0 -0.6814529388884694 -17.72332994620791)"><path d="M-7.09 -18.54 C-5.58 -24.61, -4.14 -30.02, -1.82 -35.48 M-7.09 -18.54 C-5.68 -23.1, -4.67 -27.42, -1.82 -35.48" stroke="#1e1e1e" stroke-width="2" fill="none"></path></g></g><mask></mask><g stroke-linecap="round"><g transform="translate(1034.5208737360053 398.49539242087843) rotate(0 0.5579008881804839 19.850129539752913)"><path d="M-0.35 -0.08 C-0.03 6.42, 1.29 32.49, 1.54 39.18 M0.48 -0.6 C0.79 5.94, 1.28 32.99, 1.33 39.61" stroke="#1e1e1e" stroke-width="2" fill="none"></path></g><g transform="translate(1034.5208737360053 398.49539242087843) rotate(0 0.5579008881804839 19.850129539752913)"><path d="M-5.73 21.05 C-4.21 26.16, -3.35 29.75, 1.33 39.61 M-5.73 21.05 C-2.75 27.97, -0.27 34.23, 1.33 39.61" stroke="#1e1e1e" stroke-width="2" fill="none"></path></g><g transform="translate(1034.5208737360053 398.49539242087843) rotate(0 0.5579008881804839 19.850129539752913)"><path d="M7.85 20.85 C6.21 25.97, 3.89 29.6, 1.33 39.61 M7.85 20.85 C5.94 27.87, 3.53 34.2, 1.33 39.61" stroke="#1e1e1e" stroke-width="2" fill="none"></path></g></g><mask></mask><g stroke-linecap="round"><g transform="translate(227.56047120411586 404.96118468794265) rotate(0 1.1239608722935372 16.117233406220862)"><path d="M0.2 -0.04 C0.55 5.39, 2.09 27.22, 2.41 32.51 M-0.36 -0.54 C-0.09 4.74, 1.71 26.26, 2.06 31.69" stroke="#1e1e1e" stroke-width="2" fill="none"></path></g><g transform="translate(227.56047120411586 404.96118468794265) rotate(0 1.1239608722935372 16.117233406220862)"><path d="M-4.58 16.96 C-2.31 22.42, 0.53 27.24, 2.06 31.69 M-4.58 16.96 C-2.96 20.03, -1.51 23.2, 2.06 31.69" stroke="#1e1e1e" stroke-width="2" fill="none"></path></g><g transform="translate(227.56047120411586 404.96118468794265) rotate(0 1.1239608722935372 16.117233406220862)"><path d="M6.44 16.14 C4.8 21.9, 3.72 27.02, 2.06 31.69 M6.44 16.14 C5.83 19.35, 5.05 22.69, 2.06 31.69" stroke="#1e1e1e" stroke-width="2" fill="none"></path></g></g><mask></mask><g transform="translate(543.1177647819359 296.4090119307205) rotate(0 32.79999923706055 16.80000000000001)"><text x="0" y="0" font-family="Cascadia, Segoe UI Emoji" font-size="28px" fill="#1e1e1e" text-anchor="start" style="white-space: pre;" direction="ltr" dominant-baseline="text-before-edge">main</text></g><g transform="translate(69.63972059774187 503.99963930673283) rotate(0 98.4000015258789 16.80000000000001)"><text x="0" y="0" font-family="Cascadia, Segoe UI Emoji" font-size="28px" fill="#1e1e1e" text-anchor="start" style="white-space: pre;" direction="ltr" dominant-baseline="text-before-edge">onlyever api</text></g><g transform="translate(824.9103073282504 445.28498347886745) rotate(0 91.55000305175781 17.5)"><text x="0" y="0" font-family="Virgil, Segoe UI Emoji" font-size="28px" fill="#1e1e1e" text-anchor="start" style="white-space: pre;" direction="ltr" dominant-baseline="text-before-edge">File collection</text></g><g stroke-linecap="round" transform="translate(651.1842062403512 545.0284328034522) rotate(0 75.85585216977006 59.55038861925874)"><path d="M29.78 0 C62.58 -1.62, 98.73 4.37, 121.94 0 C143.48 1.35, 149.7 9.23, 151.71 29.78 C150.39 49.02, 154.41 60.29, 151.71 89.33 C148.35 106.84, 143.19 121.18, 121.94 119.1 C102.22 119.76, 80.6 120.51, 29.78 119.1 C8.93 118.41, 0.71 112.01, 0 89.33 C-2.13 70.76, 2.42 60.7, 0 29.78 C1.66 12.26, 7.51 3.24, 29.78 0" stroke="none" stroke-width="0" fill="#ffffff"></path><path d="M29.78 0 C52.08 0.64, 78.09 -0.8, 121.94 0 M29.78 0 C60.97 0.59, 94.54 0.19, 121.94 0 M121.94 0 C139.97 -1.8, 151.06 11.01, 151.71 29.78 M121.94 0 C140.41 -0.14, 151.21 10.68, 151.71 29.78 M151.71 29.78 C150.31 44.01, 151.22 62.66, 151.71 89.33 M151.71 29.78 C151.19 43.42, 152.36 56.18, 151.71 89.33 M151.71 89.33 C149.92 109.28, 142.64 118.82, 121.94 119.1 M151.71 89.33 C151.38 110.62, 142.82 120.57, 121.94 119.1 M121.94 119.1 C100.55 120.4, 75.08 119.71, 29.78 119.1 M121.94 119.1 C96.73 118.28, 72.44 119.31, 29.78 119.1 M29.78 119.1 C11.91 120.7, 1.5 111.12, 0 89.33 M29.78 119.1 C9.97 119.73, -0.71 111.3, 0 89.33 M0 89.33 C1.7 70.8, -2.02 55.46, 0 29.78 M0 89.33 C-1.37 68.54, -0.56 47.55, 0 29.78 M0 29.78 C1.12 11.71, 10.62 0.14, 29.78 0 M0 29.78 C2.09 8.25, 8.31 -1.51, 29.78 0" stroke="#1e1e1e" stroke-width="2" fill="none"></path></g><g stroke-linecap="round" transform="translate(822.3281737239477 544.2676352421825) rotate(0 90.03451612673643 59.55038861925874)"><path d="M29.78 0 C59.98 1.76, 86.5 -0.91, 150.29 0 C169.09 2.06, 176.74 8.99, 180.07 29.78 C178.64 48.81, 178.25 71.54, 180.07 89.33 C179.33 109.67, 170.9 116.67, 150.29 119.1 C104.15 121.04, 64.5 118.94, 29.78 119.1 C12.31 118.45, 1.25 109.62, 0 89.33 C2.31 66.12, -0.49 44.78, 0 29.78 C-1.9 11.57, 7.18 0.11, 29.78 0" stroke="none" stroke-width="0" fill="#ffffff"></path><path d="M29.78 0 C67.74 -2.98, 108.88 -0.12, 150.29 0 M29.78 0 C74.11 1.01, 118.24 1.73, 150.29 0 M150.29 0 C171.93 0.7, 180.21 11.75, 180.07 29.78 M150.29 0 C168.47 -1.61, 178.56 11.61, 180.07 29.78 M180.07 29.78 C178.25 49.58, 181.58 70.13, 180.07 89.33 M180.07 29.78 C179.45 50.35, 180.07 69.47, 180.07 89.33 M180.07 89.33 C181.78 110.39, 169.13 117.23, 150.29 119.1 M180.07 89.33 C178.58 110.07, 171.47 117.27, 150.29 119.1 M150.29 119.1 C107.57 118.89, 64.92 118.74, 29.78 119.1 M150.29 119.1 C116.08 119.64, 83.45 119.34, 29.78 119.1 M29.78 119.1 C8.37 120.2, 1.61 110.1, 0 89.33 M29.78 119.1 C11.41 117.56, 2.07 108.02, 0 89.33 M0 89.33 C0.26 78, 1.65 66.64, 0 29.78 M0 89.33 C0.01 66.83, 0.74 42.45, 0 29.78 M0 29.78 C-0.74 11.45, 9.59 0.91, 29.78 0 M0 29.78 C1.74 9.19, 8.16 1.89, 29.78 0" stroke="#1e1e1e" stroke-width="2" fill="none"></path></g><g stroke-linecap="round" transform="translate(1032.1436067903305 543.3425704723061) rotate(0 75.85585216977006 59.55038861925874)"><path d="M29.78 0 C47.5 -2.61, 69.94 2.01, 121.94 0 C138.46 -0.93, 153.84 6.88, 151.71 29.78 C150.64 47.86, 150.81 68.47, 151.71 89.33 C152.46 106.74, 144.06 121.73, 121.94 119.1 C93.07 118.82, 63.11 119.02, 29.78 119.1 C11.17 119.54, 2.87 112.21, 0 89.33 C-0.54 66.96, -2.85 44.9, 0 29.78 C-2.75 10.04, 6.94 -0.18, 29.78 0" stroke="none" stroke-width="0" fill="#ffffff"></path><path d="M29.78 0 C66.5 1.86, 103.56 2.68, 121.94 0 M29.78 0 C48.37 0.71, 68.05 0.49, 121.94 0 M121.94 0 C141.92 1.82, 150.25 8.52, 151.71 29.78 M121.94 0 C140.28 1.68, 152.42 8.54, 151.71 29.78 M151.71 29.78 C153.15 45.97, 152.03 59.17, 151.71 89.33 M151.71 29.78 C151.88 45.98, 152.4 63.8, 151.71 89.33 M151.71 89.33 C150.7 107.31, 140.49 119.88, 121.94 119.1 M151.71 89.33 C153.04 107.34, 143.1 119.19, 121.94 119.1 M121.94 119.1 C93.54 118.36, 63.27 119.31, 29.78 119.1 M121.94 119.1 C87.9 118.01, 51.35 119.27, 29.78 119.1 M29.78 119.1 C11.53 120.02, 1.29 107.83, 0 89.33 M29.78 119.1 C12 117.95, -2.24 109.55, 0 89.33 M0 89.33 C1.64 73.08, 1.63 53.15, 0 29.78 M0 89.33 C0.63 65.41, -0.23 43.83, 0 29.78 M0 29.78 C-0.34 10.83, 11.43 -0.64, 29.78 0 M0 29.78 C-1.76 11.82, 8.71 0.1, 29.78 0" stroke="#1e1e1e" stroke-width="2" fill="none"></path></g><g transform="translate(1058.7994581971607 569.2929590915649) rotate(0 49.20000076293945 33.60000000000002)"><text x="49.20000076293945" y="0" font-family="Cascadia, Segoe UI Emoji" font-size="28px" fill="#1e1e1e" text-anchor="middle" style="white-space: pre;" direction="ltr" dominant-baseline="text-before-edge">file</text><text x="49.20000076293945" y="33.6" font-family="Cascadia, Segoe UI Emoji" font-size="28px" fill="#1e1e1e" text-anchor="middle" style="white-space: pre;" direction="ltr" dominant-baseline="text-before-edge">parser</text></g><g stroke-linecap="round"><g transform="translate(410.23175764144526 437.19808804175665) rotate(0 0.5833359741864115 -17.014396748359673)"><path d="M0.22 -0.03 C0.3 -5.69, 0.59 -28.71, 0.65 -34.32 M-0.33 -0.52 C-0.11 -6.08, 1.29 -28.09, 1.62 -33.77" stroke="#1e1e1e" stroke-width="2" fill="none"></path></g><g transform="translate(410.23175764144526 437.19808804175665) rotate(0 0.5833359741864115 -17.014396748359673)"><path d="M6.46 -17.45 C4.85 -23.7, 2.82 -29.21, 1.62 -33.77 M6.46 -17.45 C4.33 -23.55, 3.35 -29.22, 1.62 -33.77" stroke="#1e1e1e" stroke-width="2" fill="none"></path></g><g transform="translate(410.23175764144526 437.19808804175665) rotate(0 0.5833359741864115 -17.014396748359673)"><path d="M-5.16 -18.16 C-2.88 -24.19, -1.02 -29.47, 1.62 -33.77 M-5.16 -18.16 C-3.08 -24.01, 0.16 -29.43, 1.62 -33.77" stroke="#1e1e1e" stroke-width="2" fill="none"></path></g></g><mask></mask><g stroke-linecap="round"><g transform="translate(502.263912618856 396.07996256655434) rotate(0 0 21.97692913329786)"><path d="M-0.51 -0.29 C-0.64 7.1, -0.63 36.91, -0.55 44.3 M0.22 0.75 C0.24 7.98, 0.5 36.19, 0.41 43.51" stroke="#1e1e1e" stroke-width="2" fill="none"></path></g><g transform="translate(502.263912618856 396.07996256655434) rotate(0 0 21.97692913329786)"><path d="M-7.1 22.86 C-5.08 28.92, -1.37 36.93, 0.41 43.51 M-7.1 22.86 C-4.37 29.42, -2.62 35.61, 0.41 43.51" stroke="#1e1e1e" stroke-width="2" fill="none"></path></g><g transform="translate(502.263912618856 396.07996256655434) rotate(0 0 21.97692913329786)"><path d="M7.93 22.86 C4.84 28.85, 3.44 36.86, 0.41 43.51 M7.93 22.86 C5.95 29.39, 2.99 35.58, 0.41 43.51" stroke="#1e1e1e" stroke-width="2" fill="none"></path></g></g><mask></mask><g stroke-linecap="round" transform="translate(305.9844714233732 439.8187512113305) rotate(0 152.4206375373892 76.77985498943787)"><path d="M32 0 C82.83 1.98, 131.8 0.51, 272.84 0 M32 0 C93.47 -0.63, 155.07 0.44, 272.84 0 M272.84 0 C295.71 -1.8, 304.1 11.22, 304.84 32 M272.84 0 C291.99 0.31, 306.03 12.82, 304.84 32 M304.84 32 C305.09 59.99, 306.67 92.36, 304.84 121.56 M304.84 32 C304.37 52.61, 304.91 70.93, 304.84 121.56 M304.84 121.56 C304.85 142.95, 292.89 153.81, 272.84 153.56 M304.84 121.56 C306.77 143.16, 292.15 153.12, 272.84 153.56 M272.84 153.56 C206.63 151.31, 141.73 151.81, 32 153.56 M272.84 153.56 C184.53 155.01, 97.25 153.73, 32 153.56 M32 153.56 C8.99 154.68, -0.45 142.93, 0 121.56 M32 153.56 C11.98 151.33, 0.19 141.12, 0 121.56 M0 121.56 C1.91 95.46, 1.84 72.98, 0 32 M0 121.56 C-1.52 87.82, -0.08 53.64, 0 32 M0 32 C0.94 12.16, 11.05 -0.17, 32 0 M0 32 C0.43 11.01, 9.61 -1.73, 32 0" stroke="#1e1e1e" stroke-width="2" fill="none"></path></g><g transform="translate(319.0132649200914 493.65914468253237) rotate(0 139.39999389648438 33.60000000000002)"><text x="0" y="0" font-family="Cascadia, Segoe UI Emoji" font-size="28px" fill="#1e1e1e" text-anchor="start" style="white-space: pre;" direction="ltr" dominant-baseline="text-before-edge">- settings tab</text><text x="0" y="33.6" font-family="Cascadia, Segoe UI Emoji" font-size="28px" fill="#1e1e1e" text-anchor="start" style="white-space: pre;" direction="ltr" dominant-baseline="text-before-edge">- overwrite popup</text></g><g transform="translate(670.2329387688123 570.4001574657445) rotate(0 57.400001525878906 33.60000000000002)"><text x="0" y="0" font-family="Cascadia, Segoe UI Emoji" font-size="28px" fill="#1e1e1e" text-anchor="start" style="white-space: pre;" direction="ltr" dominant-baseline="text-before-edge">file </text><text x="0" y="33.6" font-family="Cascadia, Segoe UI Emoji" font-size="28px" fill="#1e1e1e" text-anchor="start" style="white-space: pre;" direction="ltr" dominant-baseline="text-before-edge">manager</text></g><g transform="translate(839.2329387688123 568.4001574657445) rotate(0 73.80000305175781 33.60000000000002)"><text x="0" y="0" font-family="Cascadia, Segoe UI Emoji" font-size="28px" fill="#1e1e1e" text-anchor="start" style="white-space: pre;" direction="ltr" dominant-baseline="text-before-edge">file </text><text x="0" y="33.6" font-family="Cascadia, Segoe UI Emoji" font-size="28px" fill="#1e1e1e" text-anchor="start" style="white-space: pre;" direction="ltr" dominant-baseline="text-before-edge">processor</text></g><g transform="translate(420.3747010248517 208.01569214588892) rotate(0 201.09165954589844 17.5)"><text x="0" y="0" font-family="Virgil, Segoe UI Emoji" font-size="28px" fill="#1e1e1e" text-anchor="start" style="white-space: pre;" direction="ltr" dominant-baseline="text-before-edge">Onlyever_obsidian_sync plugin</text></g><g stroke-linecap="round" transform="translate(10 10) rotate(0 622.4433477108237 48.91639065153396)"><path d="M24.46 0 C439.33 -2.98, 855.19 -4.52, 1220.43 0 C1238.63 3.02, 1248.4 8.56, 1244.89 24.46 C1242.58 34.54, 1246.71 47.28, 1244.89 73.37 C1243.31 88.01, 1236.36 98.29, 1220.43 97.83 C765.12 104.96, 310.01 107.39, 24.46 97.83 C6.18 95.22, 0.16 90.48, 0 73.37 C-1.86 56.75, -3.43 44.19, 0 24.46 C-3.33 6.21, 6.4 -2.51, 24.46 0" stroke="none" stroke-width="0" fill="#ffffff"></path><path d="M24.46 0 C442.76 -2.35, 860.35 -1.9, 1220.43 0 M24.46 0 C465.77 -3.41, 906.97 -3.53, 1220.43 0 M1220.43 0 C1236.45 -1.65, 1246.65 9.09, 1244.89 24.46 M1220.43 0 C1237.21 -1.8, 1242.86 7.62, 1244.89 24.46 M1244.89 24.46 C1243.13 35.08, 1242.88 50.74, 1244.89 73.37 M1244.89 24.46 C1244.87 34.84, 1244.93 44.74, 1244.89 73.37 M1244.89 73.37 C1244.68 89.15, 1237.55 99.82, 1220.43 97.83 M1244.89 73.37 C1244.56 89.82, 1235.62 95.78, 1220.43 97.83 M1220.43 97.83 C834.02 93.67, 448.14 94.66, 24.46 97.83 M1220.43 97.83 C809.98 100.15, 399.11 100.05, 24.46 97.83 M24.46 97.83 C8.74 96.04, 0.93 90.05, 0 73.37 M24.46 97.83 C6.91 99.67, 1.91 88.76, 0 73.37 M0 73.37 C1.3 54.55, -1.94 39.11, 0 24.46 M0 73.37 C-0.93 56.62, -0.3 41.03, 0 24.46 M0 24.46 C1.52 7.54, 7.34 -1.65, 24.46 0 M0 24.46 C-0.42 10.03, 7.17 1.06, 24.46 0" stroke="#1e1e1e" stroke-width="2" fill="none"></path></g><g transform="translate(476.6433446590663 42.11639065153395) rotate(0 155.8000030517578 16.799999999999997)"><text x="155.8000030517578" y="0" font-family="Cascadia, Segoe UI Emoji" font-size="28px" fill="#1e1e1e" text-anchor="middle" style="white-space: pre;" direction="ltr" dominant-baseline="text-before-edge">Obsidian native api</text></g><g stroke-linecap="round"><g transform="translate(242.53008889424927 239.694356102855) rotate(0 0 -65.9307873998936)"><path d="M-0.66 -0.87 C-0.69 -22.97, -0.08 -109.89, 0.05 -131.59" stroke="#1e1e1e" stroke-width="2.5" fill="none" stroke-dasharray="8 10"></path></g></g><mask></mask></svg>