<svg version="1.1" xmlns="http://www.w3.org/2000/svg" viewBox="0 0 1180.1826958900563 2568.290151161053" width="1180.1826958900563" height="2568.290151161053">
  <!-- svg-source:excalidraw -->
  
  <defs>
    <style class="style-fonts">
      @font-face {
        font-family: "Virgil";
        src: url("https://excalidraw.com/Virgil.woff2");
      }
      @font-face {
        font-family: "Cascadia";
        src: url("https://excalidraw.com/Cascadia.woff2");
      }
      @font-face {
        font-family: "Assistant";
        src: url("https://excalidraw.com/Assistant-Regular.woff2");
      }
    </style>
    
  </defs>
  <rect x="0" y="0" width="1180.1826958900563" height="2568.290151161053" fill="#ffffff"></rect><g stroke-linecap="round"><g transform="translate(379.5662407556292 125.46469190568962) rotate(0 0 22.584750338008206)"><path d="M-0.38 0.06 C-0.4 7.45, 0.34 37.12, 0.4 44.72 M0.42 -0.38 C0.33 7.03, 0.31 37.66, 0.18 45.19" stroke="#1e1e1e" stroke-width="2" fill="none"></path></g><g transform="translate(379.5662407556292 125.46469190568962) rotate(0 0 22.584750338008206)"><path d="M-7.38 23.91 C-4.26 32.92, -2.26 40.43, 0.18 45.19 M-7.38 23.91 C-4.15 32.3, -1.72 40.76, 0.18 45.19" stroke="#1e1e1e" stroke-width="2" fill="none"></path></g><g transform="translate(379.5662407556292 125.46469190568962) rotate(0 0 22.584750338008206)"><path d="M8.07 24.03 C5.2 32.94, 1.21 40.4, 0.18 45.19 M8.07 24.03 C5.35 32.33, 1.83 40.74, 0.18 45.19" stroke="#1e1e1e" stroke-width="2" fill="none"></path></g></g><mask></mask><g stroke-linecap="round" transform="translate(319.8749330685687 180.33940943938035) rotate(0 58.23130114604669 42.5)"><path d="M21.25 0 C35 0.32, 49.67 -0.46, 95.21 0 M21.25 0 C43.73 0.25, 65.36 0.27, 95.21 0 M95.21 0 C110.8 -0.82, 117.62 8.75, 116.46 21.25 M95.21 0 C108.48 -2.09, 118.14 9.26, 116.46 21.25 M116.46 21.25 C116.13 33.45, 117.21 45.94, 116.46 63.75 M116.46 21.25 C116.33 32.4, 117.68 42.71, 116.46 63.75 M116.46 63.75 C115.54 76.32, 110.77 84.78, 95.21 85 M116.46 63.75 C114.82 79.92, 110.48 82.86, 95.21 85 M95.21 85 C68.6 85.86, 38.65 83.82, 21.25 85 M95.21 85 C68.46 85.49, 42.33 84.11, 21.25 85 M21.25 85 C7.39 84.99, 0.7 75.97, 0 63.75 M21.25 85 C7.25 83.44, 0.4 77.3, 0 63.75 M0 63.75 C-1.13 56.35, -1.09 47.53, 0 21.25 M0 63.75 C-0.87 53.34, -0.33 43.97, 0 21.25 M0 21.25 C-0.83 5.49, 6.58 0.24, 21.25 0 M0 21.25 C-1.88 7.47, 6.75 -0.76, 21.25 0" stroke="#1e1e1e" stroke-width="2" fill="none"></path></g><g transform="translate(333.44790138990857 185.33940943938035) rotate(0 44.65833282470703 37.5)"><text x="44.65833282470703" y="0" font-family="Virgil, Segoe UI Emoji" font-size="20px" fill="#1e1e1e" text-anchor="middle" style="white-space: pre;" direction="ltr" dominant-baseline="text-before-edge">Get </text><text x="44.65833282470703" y="25" font-family="Virgil, Segoe UI Emoji" font-size="20px" fill="#1e1e1e" text-anchor="middle" style="white-space: pre;" direction="ltr" dominant-baseline="text-before-edge">syncable </text><text x="44.65833282470703" y="50" font-family="Virgil, Segoe UI Emoji" font-size="20px" fill="#1e1e1e" text-anchor="middle" style="white-space: pre;" direction="ltr" dominant-baseline="text-before-edge">notes</text></g><g stroke-linecap="round" transform="translate(318.99547016087445 317.5564081877841) rotate(0 58.23130114604669 30)"><path d="M15 0 C45.15 -1.84, 79.57 0.98, 101.46 0 M15 0 C35.67 -1.26, 57.89 -0.77, 101.46 0 M101.46 0 C112.16 -1.95, 116.61 3.64, 116.46 15 M101.46 0 C111.86 -0.62, 114.37 3.37, 116.46 15 M116.46 15 C114.85 24.92, 114.88 31.93, 116.46 45 M116.46 15 C115.92 23.07, 115.8 30.56, 116.46 45 M116.46 45 C115.96 55.24, 109.83 60.33, 101.46 60 M116.46 45 C116.13 54.24, 110.6 59.62, 101.46 60 M101.46 60 C81.67 60.33, 64.54 60.01, 15 60 M101.46 60 C83.59 59.27, 63.97 60.14, 15 60 M15 60 C4.72 61.18, 1.07 54.45, 0 45 M15 60 C5.43 58.38, -1.01 55.54, 0 45 M0 45 C0.51 35.01, -1.16 21.98, 0 15 M0 45 C-0.83 33.87, 0.51 24.45, 0 15 M0 15 C-0.56 3.12, 5.06 1.16, 15 0 M0 15 C-0.5 5.8, 5.02 1.33, 15 0" stroke="#1e1e1e" stroke-width="2" fill="none"></path></g><g transform="translate(326.89343924515333 322.5564081877841) rotate(0 50.33333206176758 25)"><text x="50.33333206176758" y="0" font-family="Virgil, Segoe UI Emoji" font-size="20px" fill="#1e1e1e" text-anchor="middle" style="white-space: pre;" direction="ltr" dominant-baseline="text-before-edge">Get note </text><text x="50.33333206176758" y="25" font-family="Virgil, Segoe UI Emoji" font-size="20px" fill="#1e1e1e" text-anchor="middle" style="white-space: pre;" direction="ltr" dominant-baseline="text-before-edge">content</text></g><g stroke-linecap="round" transform="translate(279.56395673562247 851.5896381347815) rotate(0 93.44529157604444 135)"><path d="M117.5 34 C128.18 51.36, 140.48 67.89, 163.39 102 M117.5 34 C131.83 56.12, 147.36 77.24, 163.39 102 M163.39 102 C188.38 136.41, 186.93 136.24, 163.39 170 M163.39 102 C185.69 135.52, 186.55 136.78, 163.39 170 M163.39 170 C151.25 187.58, 136.22 209.78, 117.5 236 M163.39 170 C147.25 193.23, 131.29 215.91, 117.5 236 M117.5 236 C93.85 269.01, 93.8 271.01, 70.5 236 M117.5 236 C93.34 271.17, 94.47 268.72, 70.5 236 M70.5 236 C51.06 209.36, 31.9 182.13, 23.5 170 M70.5 236 C53.2 212.46, 34.95 187.03, 23.5 170 M23.5 170 C-0.24 134.33, -0.18 137.48, 23.5 102 M23.5 170 C0.9 137.34, -0.42 138, 23.5 102 M23.5 102 C40.41 81.74, 55.37 60.18, 70.5 34 M23.5 102 C39.92 78.44, 54.29 55.4, 70.5 34 M70.5 34 C93.33 -0.57, 93.02 1.2, 117.5 34 M70.5 34 C95.26 1.98, 95.18 0.78, 117.5 34" stroke="#1e1e1e" stroke-width="2" fill="none"></path></g><g transform="translate(338.33660176070543 961.5896381347815) rotate(0 34.45000076293945 25)"><text x="34.45000076293945" y="0" font-family="Virgil, Segoe UI Emoji" font-size="20px" fill="#1e1e1e" text-anchor="middle" style="white-space: pre;" direction="ltr" dominant-baseline="text-before-edge">image </text><text x="34.45000076293945" y="25" font-family="Virgil, Segoe UI Emoji" font-size="20px" fill="#1e1e1e" text-anchor="middle" style="white-space: pre;" direction="ltr" dominant-baseline="text-before-edge">exists?</text></g><g stroke-linecap="round"><g transform="translate(375.3789586145608 265.45259717799456) rotate(0 0.4976466004941358 26.380641628372643)"><path d="M0.03 -0.17 C-0.05 8.57, -0.05 44.67, 0.12 53.6 M-1.42 -1.3 C-1.16 7.61, 2.09 43.13, 2.37 51.92" stroke="#1e1e1e" stroke-width="2" fill="none"></path></g><g transform="translate(375.3789586145608 265.45259717799456) rotate(0 0.4976466004941358 26.380641628372643)"><path d="M-7.7 29.03 C-4.28 35.47, 0.88 44.89, 2.37 51.92 M-7.7 29.03 C-4.67 36.52, 0.01 45.78, 2.37 51.92" stroke="#1e1e1e" stroke-width="2" fill="none"></path></g><g transform="translate(375.3789586145608 265.45259717799456) rotate(0 0.4976466004941358 26.380641628372643)"><path d="M9.37 27.92 C6.9 34.75, 6.16 44.55, 2.37 51.92 M9.37 27.92 C6.34 35.8, 4.97 45.46, 2.37 51.92" stroke="#1e1e1e" stroke-width="2" fill="none"></path></g></g><mask></mask><g stroke-linecap="round"><g transform="translate(377.7398782508617 376.3924926425269) rotate(0 0.49764660049407894 22.153673195919993)"><path d="M-0.53 -0.33 C-0.3 7.1, 0.71 36.9, 1.02 44.27 M0.2 0.69 C0.4 8.24, 0.45 37.68, 0.6 44.94" stroke="#1e1e1e" stroke-width="2" fill="none"></path></g><g transform="translate(377.7398782508617 376.3924926425269) rotate(0 0.49764660049407894 22.153673195919993)"><path d="M-7.19 24.2 C-6.03 29.11, -3.69 34.45, 0.6 44.94 M-7.19 24.2 C-5.09 29.22, -4.15 33.47, 0.6 44.94" stroke="#1e1e1e" stroke-width="2" fill="none"></path></g><g transform="translate(377.7398782508617 376.3924926425269) rotate(0 0.49764660049407894 22.153673195919993)"><path d="M7.97 24.05 C5.6 28.92, 4.4 34.29, 0.6 44.94 M7.97 24.05 C6.67 29.17, 4.22 33.46, 0.6 44.94" stroke="#1e1e1e" stroke-width="2" fill="none"></path></g></g><mask></mask><g stroke-linecap="round"><g transform="translate(376.82615304457477 555.6694860808763) rotate(0 -0.05803710952500296 18.15104455352804)"><path d="M0.5 0.22 C0.45 6.18, -0.39 30.27, -0.47 36.22 M0.09 -0.15 C0.24 5.87, 0.64 30.79, 0.59 36.88" stroke="#1e1e1e" stroke-width="2" fill="none"></path></g><g transform="translate(376.82615304457477 555.6694860808763) rotate(0 -0.05803710952500296 18.15104455352804)"><path d="M-5.72 19.86 C-3.64 23.73, -2.47 29.03, 0.59 36.88 M-5.72 19.86 C-3.99 23.78, -2.38 28.07, 0.59 36.88" stroke="#1e1e1e" stroke-width="2" fill="none"></path></g><g transform="translate(376.82615304457477 555.6694860808763) rotate(0 -0.05803710952500296 18.15104455352804)"><path d="M6.7 19.79 C5.51 23.74, 3.41 29.06, 0.59 36.88 M6.7 19.79 C5.51 23.67, 4.2 27.97, 0.59 36.88" stroke="#1e1e1e" stroke-width="2" fill="none"></path></g></g><mask></mask><g stroke-linecap="round"><g transform="translate(375.32690023072564 734.1418979144797) rotate(0 -0.21242179522806737 59.04808561108899)"><path d="M0.47 0.63 C0.27 20.32, -0.38 99.19, -0.41 118.76 M-0.74 -0.08 C-1.17 19.2, -1.46 97.08, -1.35 116.99" stroke="#1e1e1e" stroke-width="2" fill="none"></path></g><g transform="translate(375.32690023072564 734.1418979144797) rotate(0 -0.21242179522806737 59.04808561108899)"><path d="M-9.9 93.49 C-5.59 102.09, -2.4 111.89, -1.35 116.99 M-9.9 93.49 C-8.39 100.52, -5.71 107.3, -1.35 116.99" stroke="#1e1e1e" stroke-width="2" fill="none"></path></g><g transform="translate(375.32690023072564 734.1418979144797) rotate(0 -0.21242179522806737 59.04808561108899)"><path d="M7.2 93.5 C5.25 102.16, 2.18 111.95, -1.35 116.99 M7.2 93.5 C3.64 100.42, 1.25 107.21, -1.35 116.99" stroke="#1e1e1e" stroke-width="2" fill="none"></path></g></g><mask></mask><g stroke-linecap="round"><g transform="translate(464.1403743609094 985.6000190461328) rotate(0 90.01708600239857 -43.868576882413095)"><path d="M-0.95 -0.77 C18.12 -2.64, 84.74 4.43, 114.86 -10.25 C144.98 -24.93, 168.76 -76.05, 179.77 -88.83 M0.75 1.45 C20.13 -0.86, 87.31 2.91, 116.99 -12.01 C146.68 -26.93, 168.09 -75.24, 178.86 -88.09" stroke="#1e1e1e" stroke-width="2" fill="none"></path></g><g transform="translate(464.1403743609094 985.6000190461328) rotate(0 90.01708600239857 -43.868576882413095)"><path d="M173.25 -63.72 C173.67 -73.76, 178 -80.59, 178.86 -88.09 M173.25 -63.72 C174.24 -68.63, 174.54 -73.97, 178.86 -88.09" stroke="#1e1e1e" stroke-width="2" fill="none"></path></g><g transform="translate(464.1403743609094 985.6000190461328) rotate(0 90.01708600239857 -43.868576882413095)"><path d="M158.91 -73.03 C164.25 -79.8, 173.43 -83.5, 178.86 -88.09 M158.91 -73.03 C162.96 -76.08, 166.26 -79.48, 178.86 -88.09" stroke="#1e1e1e" stroke-width="2" fill="none"></path></g></g><mask></mask><g stroke-linecap="round" transform="translate(10 400.70426031440445) rotate(0 580.0913479450281 1025.2295847187102)"><path d="M32 0 C454.33 3.75, 877.4 3.23, 1128.18 0 M1128.18 0 C1147.72 -0.49, 1161.95 9.83, 1160.18 32 M1160.18 32 C1164.31 663.9, 1164.72 1296.25, 1160.18 2018.46 M1160.18 2018.46 C1160.54 2040.44, 1148.57 2048.88, 1128.18 2050.46 M1128.18 2050.46 C896.07 2048.86, 663.13 2048.77, 32 2050.46 M32 2050.46 C11.11 2052.2, 0.24 2038.83, 0 2018.46 M0 2018.46 C2.68 1600.53, 1.6 1184.18, 0 32 M0 32 C0.57 9.72, 12.42 0.73, 32 0" stroke="#1e1e1e" stroke-width="2.5" fill="none" stroke-dasharray="8 10"></path></g><g stroke-linecap="round" transform="translate(618.4156093830775 797.3931843819142) rotate(0 256.4352310658278 314.90697231858485)"><path d="M32 0 C155.74 1.44, 280.06 0.65, 480.87 0 M480.87 0 C501.87 0.49, 513.31 11.03, 512.87 32 M512.87 32 C511.09 220.73, 511.47 408.34, 512.87 597.81 M512.87 597.81 C513.4 618.69, 502.53 630.26, 480.87 629.81 M480.87 629.81 C306.36 628.48, 133.68 629.2, 32 629.81 M32 629.81 C9.51 628, 1.63 619.72, 0 597.81 M0 597.81 C-1.27 454.55, -1.64 311.53, 0 32 M0 32 C1.27 11.4, 11.95 -1.73, 32 0" stroke="#1e1e1e" stroke-width="2.5" fill="none" stroke-dasharray="8 10"></path></g><g stroke-linecap="round"><g transform="translate(369.4445195030953 1113.1833965648734) rotate(0 1.1219861296935392 68.28495773415875)"><path d="M-0.6 1.06 C-0.37 23.83, 1.9 114.44, 2.36 136.99 M1.28 0.58 C1.29 22.94, 1.46 112.25, 1.47 135.08" stroke="#1e1e1e" stroke-width="2" fill="none"></path></g><g transform="translate(369.4445195030953 1113.1833965648734) rotate(0 1.1219861296935392 68.28495773415875)"><path d="M-7.11 111.6 C-2.01 120.71, 0.15 129.23, 1.47 135.08 M-7.11 111.6 C-4.01 119.15, -2 124.06, 1.47 135.08" stroke="#1e1e1e" stroke-width="2" fill="none"></path></g><g transform="translate(369.4445195030953 1113.1833965648734) rotate(0 1.1219861296935392 68.28495773415875)"><path d="M9.99 111.58 C8.62 120.61, 4.32 129.13, 1.47 135.08 M9.99 111.58 C8.26 119.09, 5.45 124.01, 1.47 135.08" stroke="#1e1e1e" stroke-width="2" fill="none"></path></g></g><mask></mask><g stroke-linecap="round"><g transform="translate(377.81687728502084 1383.3242205342071) rotate(0 -0.34326994697187274 40.74472286052571)"><path d="M0.62 1.08 C0.4 14.55, -0.47 66.96, -0.55 80.51 M-0.51 0.6 C-0.95 14.21, -1.47 68.22, -1.43 81.54" stroke="#1e1e1e" stroke-width="2" fill="none"></path></g><g transform="translate(377.81687728502084 1383.3242205342071) rotate(0 -0.34326994697187274 40.74472286052571)"><path d="M-9.87 58 C-5.03 66.82, -5.36 76.54, -1.43 81.54 M-9.87 58 C-6.1 67.17, -3.74 75.57, -1.43 81.54" stroke="#1e1e1e" stroke-width="2" fill="none"></path></g><g transform="translate(377.81687728502084 1383.3242205342071) rotate(0 -0.34326994697187274 40.74472286052571)"><path d="M7.23 58.08 C5.79 66.96, -0.81 76.65, -1.43 81.54 M7.23 58.08 C4.62 67.34, 0.6 75.71, -1.43 81.54" stroke="#1e1e1e" stroke-width="2" fill="none"></path></g></g><mask></mask><g stroke-linecap="round"><g transform="translate(382.28446729656935 1613.3015592226716) rotate(0 0.3504853458730963 31.00549080492567)"><path d="M0.87 -0.02 C1.3 10.31, 1.52 52.46, 1.59 62.76 M-0.13 -1.07 C0.31 8.85, 0.95 50.35, 1.1 61.03" stroke="#1e1e1e" stroke-width="2" fill="none"></path></g><g transform="translate(382.28446729656935 1613.3015592226716) rotate(0 0.3504853458730963 31.00549080492567)"><path d="M-7.81 37.67 C-5.73 44.19, -2.51 48.71, 1.1 61.03 M-7.81 37.67 C-5.53 43.5, -2.35 51.08, 1.1 61.03" stroke="#1e1e1e" stroke-width="2" fill="none"></path></g><g transform="translate(382.28446729656935 1613.3015592226716) rotate(0 0.3504853458730963 31.00549080492567)"><path d="M9.29 37.41 C7.63 44.11, 7.12 48.69, 1.1 61.03 M9.29 37.41 C6.72 43.26, 5.05 50.92, 1.1 61.03" stroke="#1e1e1e" stroke-width="2" fill="none"></path></g></g><mask></mask><g stroke-linecap="round"><g transform="translate(749.6035246459514 1311.2630196678078) rotate(0 -105.7387348552445 0)"><path d="M-0.36 -0.69 C-35.34 -0.55, -175.21 -0.13, -210.34 0.09 M1.65 1.57 C-33.35 1.99, -175.12 2.16, -210.69 1.68" stroke="#1e1e1e" stroke-width="2" fill="none"></path></g><g transform="translate(749.6035246459514 1311.2630196678078) rotate(0 -105.7387348552445 0)"><path d="M-187.15 -6.75 C-194.53 -2.71, -199.42 -1.83, -210.69 1.68 M-187.15 -6.75 C-195.17 -3.4, -204.66 -0.12, -210.69 1.68" stroke="#1e1e1e" stroke-width="2" fill="none"></path></g><g transform="translate(749.6035246459514 1311.2630196678078) rotate(0 -105.7387348552445 0)"><path d="M-187.24 10.35 C-194.49 9.9, -199.35 6.28, -210.69 1.68 M-187.24 10.35 C-195.27 7.61, -204.74 4.79, -210.69 1.68" stroke="#1e1e1e" stroke-width="2" fill="none"></path></g></g><mask></mask><g stroke-linecap="round"><g transform="translate(879.9435357753928 993.860955528521) rotate(0 0 24.740465075495763)"><path d="M0.51 -0.09 C0.44 8.14, -0.24 40.96, -0.36 49.2 M0.11 -0.61 C0.21 7.71, 0.82 41.34, 0.69 49.76" stroke="#1e1e1e" stroke-width="2" fill="none"></path></g><g transform="translate(879.9435357753928 993.860955528521) rotate(0 0 24.740465075495763)"><path d="M-7.86 26.54 C-5.46 32.95, -3.19 40.33, 0.69 49.76 M-7.86 26.54 C-5.21 32.59, -2.8 38.98, 0.69 49.76" stroke="#1e1e1e" stroke-width="2" fill="none"></path></g><g transform="translate(879.9435357753928 993.860955528521) rotate(0 0 24.740465075495763)"><path d="M9.06 26.48 C6.29 32.98, 3.39 40.38, 0.69 49.76 M9.06 26.48 C7 32.6, 4.69 39.02, 0.69 49.76" stroke="#1e1e1e" stroke-width="2" fill="none"></path></g></g><mask></mask><g stroke-linecap="round"><g transform="translate(881.1503877302948 1185.7504163579756) rotate(0 0 27.75759496275134)"><path d="M-0.73 0.25 C-0.92 9.34, -1.22 45.54, -0.91 54.76 M1.08 -0.66 C1.25 8.54, 1.34 46.3, 1.33 55.9" stroke="#1e1e1e" stroke-width="2" fill="none"></path></g><g transform="translate(881.1503877302948 1185.7504163579756) rotate(0 0 27.75759496275134)"><path d="M-7.25 32.42 C-4.04 38.43, -3 49.36, 1.33 55.9 M-7.25 32.42 C-5.02 39.78, -2.15 46.87, 1.33 55.9" stroke="#1e1e1e" stroke-width="2" fill="none"></path></g><g transform="translate(881.1503877302948 1185.7504163579756) rotate(0 0 27.75759496275134)"><path d="M9.85 32.4 C7.62 38.31, 3.22 49.25, 1.33 55.9 M9.85 32.4 C6.88 39.8, 4.54 46.89, 1.33 55.9" stroke="#1e1e1e" stroke-width="2" fill="none"></path></g></g><mask></mask><g transform="translate(520.880103046643 929.7676721089512) rotate(0 16.058332443237305 12.5)"><text x="0" y="0" font-family="Virgil, Segoe UI Emoji" font-size="20px" fill="#1e1e1e" text-anchor="start" style="white-space: pre;" direction="ltr" dominant-baseline="text-before-edge">Yes</text></g><g transform="translate(394.58658883394355 1142.5445681248225) rotate(0 11.983333587646484 12.5)"><text x="0" y="0" font-family="Virgil, Segoe UI Emoji" font-size="20px" fill="#1e1e1e" text-anchor="start" style="white-space: pre;" direction="ltr" dominant-baseline="text-before-edge">No</text></g><g stroke-linecap="round"><g transform="translate(775.0418625523394 913.8942788112562) rotate(0 20.734330030999217 0)"><path d="M-0.31 0.39 C6.65 0.36, 34.53 0.23, 41.54 0.16 M0.53 0.12 C7.44 -0.11, 34.31 -0.8, 41.15 -0.72" stroke="#1e1e1e" stroke-width="2" fill="none"></path></g></g><mask></mask><g stroke-linecap="round"><g transform="translate(936.6704309136935 918.6100527208959) rotate(0 20.734330030999217 0)"><path d="M-0.47 -0.36 C6.53 -0.37, 35.08 -0.46, 41.99 -0.4 M0.29 0.64 C7.26 0.72, 34.86 0.09, 41.83 0.1" stroke="#1e1e1e" stroke-width="2" fill="none"></path></g></g><mask></mask><g stroke-linecap="round"><g transform="translate(371.9899842536274 2022.060001739737) rotate(0 64.99219590265545 -0.8786537316121894)"><path d="M-0.2 -0.32 C21.41 -0.74, 107.99 -1.42, 129.73 -1.82 M-1.77 -1.53 C19.66 -1.81, 106.75 -0.25, 128.65 -0.32" stroke="#1e1e1e" stroke-width="2" fill="none"></path></g><g transform="translate(371.9899842536274 2022.060001739737) rotate(0 64.99219590265545 -0.8786537316121894)"><path d="M105.08 8.04 C111.67 5.11, 119.26 3.42, 128.65 -0.32 M105.08 8.04 C110.78 5.71, 115.36 4.34, 128.65 -0.32" stroke="#1e1e1e" stroke-width="2" fill="none"></path></g><g transform="translate(371.9899842536274 2022.060001739737) rotate(0 64.99219590265545 -0.8786537316121894)"><path d="M105.23 -9.06 C111.87 -6.79, 119.42 -3.28, 128.65 -0.32 M105.23 -9.06 C110.75 -7.65, 115.3 -5.29, 128.65 -0.32" stroke="#1e1e1e" stroke-width="2" fill="none"></path></g></g><mask></mask><g stroke-linecap="round"><g transform="translate(499.5422972481151 2061.8836139797218) rotate(0 -64.2761564972439 -0.8399941545665115)"><path d="M0.11 0.11 C-20.93 0.13, -105.87 -0.49, -127.37 -0.96 M-1.28 -0.88 C-22.29 -1.11, -106.28 -2.53, -127.69 -2.7" stroke="#1e1e1e" stroke-width="2" fill="none"></path></g><g transform="translate(499.5422972481151 2061.8836139797218) rotate(0 -64.2761564972439 -0.8399941545665115)"><path d="M-104.09 -10.94 C-108.9 -7.23, -112.78 -7.99, -127.69 -2.7 M-104.09 -10.94 C-108.6 -8.85, -114.98 -6.89, -127.69 -2.7" stroke="#1e1e1e" stroke-width="2" fill="none"></path></g><g transform="translate(499.5422972481151 2061.8836139797218) rotate(0 -64.2761564972439 -0.8399941545665115)"><path d="M-104.31 6.16 C-108.92 6.31, -112.75 2, -127.69 -2.7 M-104.31 6.16 C-108.66 4.57, -115 2.85, -127.69 -2.7" stroke="#1e1e1e" stroke-width="2" fill="none"></path></g></g><mask></mask><g stroke-linecap="round" transform="translate(68.34439727478912 1941.3287671625317) rotate(0 367.76153791824845 103.12600989102225)"><path d="M32 0 C295.97 0.45, 558.82 1.4, 703.52 0 M32 0 C195.39 1.83, 359.01 2.08, 703.52 0 M703.52 0 C726.59 0.11, 737.46 8.67, 735.52 32 M703.52 0 C725.75 -1.77, 735.54 11.31, 735.52 32 M735.52 32 C733.8 86.47, 733.84 139.46, 735.52 174.25 M735.52 32 C735 75.58, 735.17 121.76, 735.52 174.25 M735.52 174.25 C735.47 195.41, 726.26 204.3, 703.52 206.25 M735.52 174.25 C736.69 194.46, 726.89 208.32, 703.52 206.25 M703.52 206.25 C519.04 207.49, 333.67 207.47, 32 206.25 M703.52 206.25 C468.87 208.24, 234.94 208.16, 32 206.25 M32 206.25 C9.26 206.83, -1.21 197.39, 0 174.25 M32 206.25 C11.3 207.54, -1.15 196.37, 0 174.25 M0 174.25 C-0.71 139.42, -1.73 107.4, 0 32 M0 174.25 C-0.11 123.18, -0.16 74.63, 0 32 M0 32 C-0.61 11.47, 11.6 -1.75, 32 0 M0 32 C-1.14 9.14, 10.32 -1.83, 32 0" stroke="#1e1e1e" stroke-width="2" fill="none"></path></g><g stroke-linecap="round"><g transform="translate(394.1298921488801 2148.7064506981465) rotate(0 -0.6979075473010425 38.5325584469615)"><path d="M0.04 -0.85 C-0.45 11.77, -2.2 63, -2.45 75.92 M-1.4 1.31 C-1.56 14.03, -0.14 64.11, -0.29 76.86" stroke="#1e1e1e" stroke-width="2" fill="none"></path></g><g transform="translate(394.1298921488801 2148.7064506981465) rotate(0 -0.6979075473010425 38.5325584469615)"><path d="M-9.09 53.46 C-7.52 59.58, -5.04 69.07, -0.29 76.86 M-9.09 53.46 C-5.99 59.58, -4.38 65.57, -0.29 76.86" stroke="#1e1e1e" stroke-width="2" fill="none"></path></g><g transform="translate(394.1298921488801 2148.7064506981465) rotate(0 -0.6979075473010425 38.5325584469615)"><path d="M8.01 53.28 C3.82 59.46, 0.55 69.02, -0.29 76.86 M8.01 53.28 C6.49 59.3, 3.48 65.34, -0.29 76.86" stroke="#1e1e1e" stroke-width="2" fill="none"></path></g></g><mask></mask><g stroke-linecap="round"><g transform="translate(392.3542081990504 1819.4883256903581) rotate(0 -1.2588720257222121 63.2286397281448)"><path d="M0.51 -0.08 C0.3 21.13, -1.35 105.92, -1.99 126.91 M-0.68 -1.17 C-0.94 19.7, -2.64 103.68, -2.65 125.02" stroke="#1e1e1e" stroke-width="2" fill="none"></path></g><g transform="translate(392.3542081990504 1819.4883256903581) rotate(0 -1.2588720257222121 63.2286397281448)"><path d="M-10.93 101.43 C-9.14 107.94, -6.27 111.46, -2.65 125.02 M-10.93 101.43 C-8.12 107.82, -5.99 113.6, -2.65 125.02" stroke="#1e1e1e" stroke-width="2" fill="none"></path></g><g transform="translate(392.3542081990504 1819.4883256903581) rotate(0 -1.2588720257222121 63.2286397281448)"><path d="M6.17 101.63 C3.85 108.17, 2.61 111.64, -2.65 125.02 M6.17 101.63 C4.71 108.03, 2.56 113.76, -2.65 125.02" stroke="#1e1e1e" stroke-width="2" fill="none"></path></g></g><mask></mask><g stroke-linecap="round" transform="translate(303.16829803456176 2498.290151161053) rotate(0 84.71138959071106 30)"><path d="M15 0 C57.87 1.33, 100.34 -1.39, 154.42 0 M15 0 C55.78 -1.58, 96.42 -0.98, 154.42 0 M154.42 0 C166.2 -1.83, 170.86 4.49, 169.42 15 M154.42 0 C162.58 2.29, 168.18 4.49, 169.42 15 M169.42 15 C168.51 22.3, 167.8 30.85, 169.42 45 M169.42 15 C168.53 22.85, 169.21 30.3, 169.42 45 M169.42 45 C167.84 53.83, 165.29 59.72, 154.42 60 M169.42 45 C171.37 56.53, 163 62.05, 154.42 60 M154.42 60 C100.53 60.35, 49.2 59.12, 15 60 M154.42 60 C105.96 59.96, 55.92 60.03, 15 60 M15 60 C3.1 58.08, -0.86 56.35, 0 45 M15 60 C3.48 62.08, 1.45 55.77, 0 45 M0 45 C0.28 35.89, -0.59 24.35, 0 15 M0 45 C0.57 34.22, 0.01 22.91, 0 15 M0 15 C0.8 4.4, 6.41 0.02, 15 0 M0 15 C-2.27 3.64, 6.2 -1.17, 15 0" stroke="#1e1e1e" stroke-width="2" fill="none"></path></g><g transform="translate(333.41302044997985 2503.290151161053) rotate(0 54.46666717529297 25)"><text x="54.46666717529297" y="0" font-family="Virgil, Segoe UI Emoji" font-size="20px" fill="#1e1e1e" text-anchor="middle" style="white-space: pre;" direction="ltr" dominant-baseline="text-before-edge">Make sync </text><text x="54.46666717529297" y="25" font-family="Virgil, Segoe UI Emoji" font-size="20px" fill="#1e1e1e" text-anchor="middle" style="white-space: pre;" direction="ltr" dominant-baseline="text-before-edge">request</text></g><g stroke-linecap="round"><g transform="translate(383.6135976777464 2365.1604681306503) rotate(0 0.9089539652976555 66.41217081242007)"><path d="M-0.59 1.11 C-0.13 23.11, 2.29 109.94, 2.87 131.72 M1.31 0.65 C1.69 22.78, 2.25 110.69, 2.48 132.68" stroke="#1e1e1e" stroke-width="2" fill="none"></path></g><g transform="translate(383.6135976777464 2365.1604681306503) rotate(0 0.9089539652976555 66.41217081242007)"><path d="M-6.27 109.26 C-1.76 118.31, -2.74 125.61, 2.48 132.68 M-6.27 109.26 C-3.81 113.59, -3.47 119.98, 2.48 132.68" stroke="#1e1e1e" stroke-width="2" fill="none"></path></g><g transform="translate(383.6135976777464 2365.1604681306503) rotate(0 0.9089539652976555 66.41217081242007)"><path d="M10.83 109.11 C10.04 118.13, 3.76 125.47, 2.48 132.68 M10.83 109.11 C9.6 113.62, 6.27 120.04, 2.48 132.68" stroke="#1e1e1e" stroke-width="2" fill="none"></path></g></g><mask></mask><g stroke-linecap="round" transform="translate(317.71821821130743 10) rotate(0 60.92719471762294 59.3096585746772)"><path d="M59.02 0.01 C67.95 -1.3, 79.41 1.93, 88.02 6.04 C96.63 10.15, 105.29 17.36, 110.7 24.66 C116.12 31.95, 119.08 40.68, 120.53 49.81 C121.98 58.94, 122.44 70.78, 119.41 79.43 C116.37 88.09, 109.34 95.7, 102.32 101.76 C95.31 107.81, 86.25 113.16, 77.31 115.74 C68.36 118.33, 57.93 119.1, 48.64 117.28 C39.36 115.46, 28.88 110.63, 21.6 104.83 C14.32 99.02, 8.62 90.9, 4.99 82.43 C1.36 73.97, -1.1 63.24, -0.18 54.02 C0.73 44.8, 5.35 34.74, 10.46 27.12 C15.57 19.5, 22.1 12.71, 30.48 8.33 C38.86 3.95, 55.59 1.92, 60.74 0.82 C65.88 -0.28, 61.38 0.91, 61.35 1.73 M69.54 0.46 C78.64 0.9, 89.14 6.94, 97.03 12.29 C104.91 17.64, 112.5 24.75, 116.85 32.56 C121.2 40.36, 123.35 50.06, 123.13 59.14 C122.92 68.21, 120.23 78.57, 115.55 87.01 C110.86 95.46, 102.98 104.59, 95.03 109.82 C87.07 115.05, 77.52 117.71, 67.81 118.39 C58.11 119.08, 45.84 117.57, 36.78 113.94 C27.71 110.32, 19.09 103.71, 13.42 96.64 C7.74 89.58, 4.4 80.19, 2.73 71.53 C1.07 62.88, 0.94 53.45, 3.4 44.71 C5.86 35.97, 11.4 26.21, 17.49 19.1 C23.57 12, 31.23 5.06, 39.9 2.09 C48.58 -0.88, 64.56 1.24, 69.54 1.26 C74.52 1.28, 69.75 1.19, 69.76 2.23" stroke="#1e1e1e" stroke-width="2" fill="none"></path></g><g transform="translate(347.9122262129613 43.42908028754539) rotate(0 26.483333587646484 25)"><text x="0" y="0" font-family="Virgil, Segoe UI Emoji" font-size="20px" fill="#1e1e1e" text-anchor="start" style="white-space: pre;" direction="ltr" dominant-baseline="text-before-edge">User</text><text x="0" y="25" font-family="Virgil, Segoe UI Emoji" font-size="20px" fill="#1e1e1e" text-anchor="start" style="white-space: pre;" direction="ltr" dominant-baseline="text-before-edge">event</text></g><g stroke-linecap="round" transform="translate(658.9984364858715 869.5241440839978) rotate(0 58.23130114604669 55)"><path d="M27.5 0 C41.94 0.33, 55.86 -2.1, 88.96 0 M27.5 0 C47.72 0.48, 67.43 -0.14, 88.96 0 M88.96 0 C108.4 1.72, 117.56 10.56, 116.46 27.5 M88.96 0 C106.41 -1.01, 115.51 8.32, 116.46 27.5 M116.46 27.5 C115.32 46.32, 117.6 63.05, 116.46 82.5 M116.46 27.5 C115.71 43.52, 117 61.82, 116.46 82.5 M116.46 82.5 C115.07 102.2, 108.16 111.53, 88.96 110 M116.46 82.5 C116.17 100.09, 108.89 112.19, 88.96 110 M88.96 110 C67.45 109.59, 49.08 111.21, 27.5 110 M88.96 110 C65.23 110.69, 39.4 110.97, 27.5 110 M27.5 110 C10 111.34, 0.16 102.29, 0 82.5 M27.5 110 C9.44 110.3, 0.67 99.25, 0 82.5 M0 82.5 C1.64 60.14, 0.37 38.82, 0 27.5 M0 82.5 C-1.04 68.36, -0.78 53.81, 0 27.5 M0 27.5 C0.26 9.8, 9.01 -0.5, 27.5 0 M0 27.5 C1.84 11.28, 10.63 1.71, 27.5 0" stroke="#1e1e1e" stroke-width="2" fill="none"></path></g><g transform="translate(664.5380719825039 874.5241440839978) rotate(0 52.69166564941406 50)"><text x="52.69166564941406" y="0" font-family="Virgil, Segoe UI Emoji" font-size="20px" fill="#1e1e1e" text-anchor="middle" style="white-space: pre;" direction="ltr" dominant-baseline="text-before-edge">Upload </text><text x="52.69166564941406" y="25" font-family="Virgil, Segoe UI Emoji" font-size="20px" fill="#1e1e1e" text-anchor="middle" style="white-space: pre;" direction="ltr" dominant-baseline="text-before-edge">image and </text><text x="52.69166564941406" y="50" font-family="Virgil, Segoe UI Emoji" font-size="20px" fill="#1e1e1e" text-anchor="middle" style="white-space: pre;" direction="ltr" dominant-baseline="text-before-edge">return </text><text x="52.69166564941406" y="75" font-family="Virgil, Segoe UI Emoji" font-size="20px" fill="#1e1e1e" text-anchor="middle" style="white-space: pre;" direction="ltr" dominant-baseline="text-before-edge">image url</text></g><g stroke-linecap="round" transform="translate(820.7466089936966 866.4408694461055) rotate(0 58.23130114604669 55)"><path d="M27.5 0 C48.22 1.63, 67.45 1.9, 88.96 0 M27.5 0 C48.02 1.09, 67.99 0.93, 88.96 0 M88.96 0 C106.53 -0.87, 115.63 8.43, 116.46 27.5 M88.96 0 C107.9 2.04, 117.29 7.3, 116.46 27.5 M116.46 27.5 C116.82 45.59, 117.31 64.23, 116.46 82.5 M116.46 27.5 C116.18 39.37, 117.31 50.63, 116.46 82.5 M116.46 82.5 C116.21 100.19, 108.68 111.91, 88.96 110 M116.46 82.5 C117.05 102.24, 105.3 108.27, 88.96 110 M88.96 110 C72.05 109.4, 52.46 111.68, 27.5 110 M88.96 110 C68.81 111.05, 47.91 111.11, 27.5 110 M27.5 110 C9.41 110.26, 0.58 99.46, 0 82.5 M27.5 110 C11.33 109.79, -0.13 102.67, 0 82.5 M0 82.5 C-0.96 69.06, -0.09 51.88, 0 27.5 M0 82.5 C0.39 66.52, 0.18 49.65, 0 27.5 M0 27.5 C1.6 11, 10.44 1.49, 27.5 0 M0 27.5 C0.47 9.21, 9.44 -1.2, 27.5 0" stroke="#1e1e1e" stroke-width="2" fill="none"></path></g><g transform="translate(826.8862429644505 871.4408694461055) rotate(0 52.09166717529297 50)"><text x="52.09166717529297" y="0" font-family="Virgil, Segoe UI Emoji" font-size="20px" fill="#1e1e1e" text-anchor="middle" style="white-space: pre;" direction="ltr" dominant-baseline="text-before-edge">Upload </text><text x="52.09166717529297" y="25" font-family="Virgil, Segoe UI Emoji" font-size="20px" fill="#1e1e1e" text-anchor="middle" style="white-space: pre;" direction="ltr" dominant-baseline="text-before-edge">image </text><text x="52.09166717529297" y="50" font-family="Virgil, Segoe UI Emoji" font-size="20px" fill="#1e1e1e" text-anchor="middle" style="white-space: pre;" direction="ltr" dominant-baseline="text-before-edge">and return</text><text x="52.09166717529297" y="75" font-family="Virgil, Segoe UI Emoji" font-size="20px" fill="#1e1e1e" text-anchor="middle" style="white-space: pre;" direction="ltr" dominant-baseline="text-before-edge">image url</text></g><g stroke-linecap="round" transform="translate(977.2898977184946 869.5142356488856) rotate(0 58.23130114604669 55)"><path d="M27.5 0 C49.73 1.24, 70.21 0.69, 88.96 0 M27.5 0 C50.83 -0.87, 74.51 -0.8, 88.96 0 M88.96 0 C107.82 1.77, 117.18 7.54, 116.46 27.5 M88.96 0 C108.3 0.74, 116.07 9.37, 116.46 27.5 M116.46 27.5 C114.71 43.31, 117.34 54.7, 116.46 82.5 M116.46 27.5 C116.57 47.45, 117.39 69, 116.46 82.5 M116.46 82.5 C116.97 102.06, 105.56 108.49, 88.96 110 M116.46 82.5 C116.6 100.98, 109.3 112.19, 88.96 110 M88.96 110 C74.71 108.42, 60.33 111.18, 27.5 110 M88.96 110 C66.54 110.58, 44.17 109.76, 27.5 110 M27.5 110 C11.04 109.82, -0.12 102.43, 0 82.5 M27.5 110 C8.36 110.37, -0.4 99.83, 0 82.5 M0 82.5 C-0.07 61.94, -0.98 43.52, 0 27.5 M0 82.5 C0.85 65.17, 0.68 46.74, 0 27.5 M0 27.5 C0.41 9.21, 9.41 -1.04, 27.5 0 M0 27.5 C-0.48 8.82, 9.94 -0.18, 27.5 0" stroke="#1e1e1e" stroke-width="2" fill="none"></path></g><g transform="translate(982.8295332151274 874.5142356488856) rotate(0 52.69166564941406 50)"><text x="52.69166564941406" y="0" font-family="Virgil, Segoe UI Emoji" font-size="20px" fill="#1e1e1e" text-anchor="middle" style="white-space: pre;" direction="ltr" dominant-baseline="text-before-edge">Upload </text><text x="52.69166564941406" y="25" font-family="Virgil, Segoe UI Emoji" font-size="20px" fill="#1e1e1e" text-anchor="middle" style="white-space: pre;" direction="ltr" dominant-baseline="text-before-edge">image and </text><text x="52.69166564941406" y="50" font-family="Virgil, Segoe UI Emoji" font-size="20px" fill="#1e1e1e" text-anchor="middle" style="white-space: pre;" direction="ltr" dominant-baseline="text-before-edge">return </text><text x="52.69166564941406" y="75" font-family="Virgil, Segoe UI Emoji" font-size="20px" fill="#1e1e1e" text-anchor="middle" style="white-space: pre;" direction="ltr" dominant-baseline="text-before-edge">image url</text></g><g stroke-linecap="round" transform="translate(646.2548608923439 857.0892532575177) rotate(0 231.7613837546416 65.87408625391265)"><path d="M32 0 C185.93 -0.63, 338.71 -1.69, 431.52 0 M32 0 C134.54 1.34, 236.98 0.37, 431.52 0 M431.52 0 C453.73 0.65, 463.18 10.84, 463.52 32 M431.52 0 C451.93 0.77, 462.3 8.44, 463.52 32 M463.52 32 C465.13 58.3, 465.29 82.62, 463.52 99.75 M463.52 32 C464.25 50.76, 463.12 67.54, 463.52 99.75 M463.52 99.75 C463.65 121.21, 454.6 133.66, 431.52 131.75 M463.52 99.75 C462.22 122.38, 454.17 132.54, 431.52 131.75 M431.52 131.75 C350.93 132.78, 269.65 132.82, 32 131.75 M431.52 131.75 C307.05 130.14, 181.47 130.64, 32 131.75 M32 131.75 C9.97 132.07, -0.35 120.21, 0 99.75 M32 131.75 C11.97 131.75, -1.69 121, 0 99.75 M0 99.75 C0.97 82.43, -0.17 67.04, 0 32 M0 99.75 C-0.23 73.23, -0.31 46.14, 0 32 M0 32 C-0.42 10.37, 11.34 -0.15, 32 0 M0 32 C-1.05 12.07, 12.48 -2.29, 32 0" stroke="#1e1e1e" stroke-width="2" fill="none"></path></g><g stroke-linecap="round" transform="translate(740.0697863766077 1049.9173975915314) rotate(0 127.29125166879248 67.5)"><path d="M32 0 C101.1 -1.82, 166.54 -1.87, 222.58 0 M32 0 C82.51 -2.5, 132.74 -1.37, 222.58 0 M222.58 0 C243.57 0.18, 253.78 11.33, 254.58 32 M222.58 0 C242.7 -2.22, 256.32 11.47, 254.58 32 M254.58 32 C256.6 48.09, 254.43 66.08, 254.58 103 M254.58 32 C253.9 59.31, 254.82 88.19, 254.58 103 M254.58 103 C256.33 126.24, 242.78 136.13, 222.58 135 M254.58 103 C255.9 125.13, 241.7 136.44, 222.58 135 M222.58 135 C158.96 135.39, 92.69 135.73, 32 135 M222.58 135 C178.43 135.63, 134.05 134.99, 32 135 M32 135 C10.32 134.13, 1.13 124.33, 0 103 M32 135 C8.98 134.92, -1.07 123.21, 0 103 M0 103 C-0.73 82.38, 1.61 59.83, 0 32 M0 103 C-0.02 75.91, -0.35 49.71, 0 32 M0 32 C0.67 10.51, 9.75 1.22, 32 0 M0 32 C1.81 8.38, 10.62 1.05, 32 0" stroke="#1e1e1e" stroke-width="2" fill="none"></path></g><g transform="translate(764.8943708701072 1092.4173975915314) rotate(0 102.46666717529297 25)"><text x="102.46666717529297" y="0" font-family="Virgil, Segoe UI Emoji" font-size="20px" fill="#1e1e1e" text-anchor="middle" style="white-space: pre;" direction="ltr" dominant-baseline="text-before-edge">Select  first url as </text><text x="102.46666717529297" y="25" font-family="Virgil, Segoe UI Emoji" font-size="20px" fill="#1e1e1e" text-anchor="middle" style="white-space: pre;" direction="ltr" dominant-baseline="text-before-edge">banner url</text></g><g stroke-linecap="round" transform="translate(748.2288613619244 1244.930361567222) rotate(0 127.29125166879248 67.5)"><path d="M32 0 C78.39 -0.1, 122.83 0.49, 222.58 0 M32 0 C73.05 -1.99, 112.02 -1.54, 222.58 0 M222.58 0 C243.66 0.07, 253.62 9.52, 254.58 32 M222.58 0 C246.02 1.47, 252.37 10.17, 254.58 32 M254.58 32 C254.77 55.33, 256.72 74.86, 254.58 103 M254.58 32 C253.78 53.32, 254.35 73.71, 254.58 103 M254.58 103 C255.41 125.19, 244.48 135.51, 222.58 135 M254.58 103 C254.43 124.19, 244 133.87, 222.58 135 M222.58 135 C148.46 131.58, 74.68 132.43, 32 135 M222.58 135 C179.78 134.02, 136.79 133.32, 32 135 M32 135 C9.48 136.37, -0.51 124.7, 0 103 M32 135 C9.64 136.05, 1.38 122.09, 0 103 M0 103 C-1.12 75.96, -1.93 50.53, 0 32 M0 103 C0.35 77.99, 0.12 53.87, 0 32 M0 32 C-1.73 8.8, 9.32 -1.65, 32 0 M0 32 C0.28 8.52, 10.31 -1.62, 32 0" stroke="#1e1e1e" stroke-width="2" fill="none"></path></g><g transform="translate(759.4534473813023 1274.930361567222) rotate(0 116.06666564941406 37.5)"><text x="116.06666564941406" y="0" font-family="Virgil, Segoe UI Emoji" font-size="20px" fill="#1e1e1e" text-anchor="middle" style="white-space: pre;" direction="ltr" dominant-baseline="text-before-edge">Replace internal image </text><text x="116.06666564941406" y="25" font-family="Virgil, Segoe UI Emoji" font-size="20px" fill="#1e1e1e" text-anchor="middle" style="white-space: pre;" direction="ltr" dominant-baseline="text-before-edge">url in the content with </text><text x="116.06666564941406" y="50" font-family="Virgil, Segoe UI Emoji" font-size="20px" fill="#1e1e1e" text-anchor="middle" style="white-space: pre;" direction="ltr" dominant-baseline="text-before-edge">AWS url</text></g><g stroke-linecap="round" transform="translate(279.489887149095 1249.932220853158) rotate(0 127.29125166879248 67.5)"><path d="M32 0 C91.38 -2.47, 153.07 0.46, 222.58 0 M32 0 C102.25 -1.06, 170.97 -1.99, 222.58 0 M222.58 0 C244.24 0.99, 254.57 10.75, 254.58 32 M222.58 0 C246.17 0.11, 254.99 12.89, 254.58 32 M254.58 32 C253.58 49.99, 255.19 68.56, 254.58 103 M254.58 32 C254.09 56.33, 255.86 81.54, 254.58 103 M254.58 103 C256.52 124.59, 245.76 135.21, 222.58 135 M254.58 103 C253.84 125.34, 245.13 134.85, 222.58 135 M222.58 135 C162.92 132.03, 107.11 131.78, 32 135 M222.58 135 C175.01 133.44, 127.27 133.44, 32 135 M32 135 C11.36 135.21, -1.42 124.89, 0 103 M32 135 C11.84 135.94, 2.25 122.53, 0 103 M0 103 C1.81 85.21, 0.55 71.43, 0 32 M0 103 C-0.65 84.98, -0.14 66.07, 0 32 M0 32 C-0.62 9.23, 10.03 0.15, 32 0 M0 32 C-2.13 9.08, 10.54 -1.85, 32 0" stroke="#1e1e1e" stroke-width="2" fill="none"></path></g><g transform="translate(288.0561403437664 1279.932220853158) rotate(0 118.7249984741211 37.5)"><text x="118.7249984741211" y="0" font-family="Virgil, Segoe UI Emoji" font-size="20px" fill="#1e1e1e" text-anchor="middle" style="white-space: pre;" direction="ltr" dominant-baseline="text-before-edge">Generate onlyever </text><text x="118.7249984741211" y="25" font-family="Virgil, Segoe UI Emoji" font-size="20px" fill="#1e1e1e" text-anchor="middle" style="white-space: pre;" direction="ltr" dominant-baseline="text-before-edge">internal links for all the</text><text x="118.7249984741211" y="50" font-family="Virgil, Segoe UI Emoji" font-size="20px" fill="#1e1e1e" text-anchor="middle" style="white-space: pre;" direction="ltr" dominant-baseline="text-before-edge">identified internal links.</text></g><g stroke-linecap="round" transform="translate(252.6253608609827 597.295812437009) rotate(0 127.29125166879248 67.5)"><path d="M32 0 C71.15 1, 110.1 -1.36, 222.58 0 M32 0 C97.43 2.56, 162.92 2.73, 222.58 0 M222.58 0 C243.9 -0.65, 253.64 11.62, 254.58 32 M222.58 0 C245.44 -1.47, 254.21 9.39, 254.58 32 M254.58 32 C255.24 50.57, 255.7 69.8, 254.58 103 M254.58 32 C255.76 55.43, 254.29 79.82, 254.58 103 M254.58 103 C253.6 122.37, 244.89 135.69, 222.58 135 M254.58 103 C256.41 126.07, 242.01 134.5, 222.58 135 M222.58 135 C152.19 137.95, 85.91 137.59, 32 135 M222.58 135 C171.04 133.15, 122.3 132.34, 32 135 M32 135 C9.6 135.42, 0.43 124.88, 0 103 M32 135 C12.66 136.1, -1.94 122.22, 0 103 M0 103 C0.96 85.89, 0.68 73.17, 0 32 M0 103 C-0.84 80.18, -0.82 56.99, 0 32 M0 32 C-0.45 10.79, 10.31 1.68, 32 0 M0 32 C1.73 11.38, 10.68 -0.54, 32 0" stroke="#1e1e1e" stroke-width="2" fill="none"></path></g><g transform="translate(258.28328123094707 639.795812437009) rotate(0 121.63333129882812 25)"><text x="121.63333129882812" y="0" font-family="Virgil, Segoe UI Emoji" font-size="20px" fill="#1e1e1e" text-anchor="middle" style="white-space: pre;" direction="ltr" dominant-baseline="text-before-edge">Identify all internal links</text><text x="121.63333129882812" y="25" font-family="Virgil, Segoe UI Emoji" font-size="20px" fill="#1e1e1e" text-anchor="middle" style="white-space: pre;" direction="ltr" dominant-baseline="text-before-edge">that are images</text></g><g stroke-linecap="round" transform="translate(254.66741913925443 422.2736674068334) rotate(0 127.29125166879248 67.5)"><path d="M32 0 C99.19 -0.26, 166.87 -1.14, 222.58 0 M32 0 C84.35 -2.03, 139.23 -1.1, 222.58 0 M222.58 0 C243.01 -1.98, 255.4 9.22, 254.58 32 M222.58 0 C242.64 1.87, 253.56 10.79, 254.58 32 M254.58 32 C254.94 57.39, 253.68 85.49, 254.58 103 M254.58 32 C255.4 47.01, 256.07 60.27, 254.58 103 M254.58 103 C254.44 125.86, 242.03 133.06, 222.58 135 M254.58 103 C256.46 123.01, 245.61 133.81, 222.58 135 M222.58 135 C175.11 132.84, 126.93 133.45, 32 135 M222.58 135 C164.82 134.08, 108 134.77, 32 135 M32 135 C10.69 134.98, -1.89 125.68, 0 103 M32 135 C9.48 134.91, 0.31 126.15, 0 103 M0 103 C-1.62 87.37, -1.11 71.78, 0 32 M0 103 C0.36 79.89, 0.23 57.74, 0 32 M0 32 C-1.2 9.99, 8.72 0.25, 32 0 M0 32 C1.48 12.34, 8.56 0.27, 32 0" stroke="#1e1e1e" stroke-width="2" fill="none"></path></g><g transform="translate(260.32533950921925 464.7736674068334) rotate(0 121.63333129882812 25)"><text x="121.63333129882812" y="0" font-family="Virgil, Segoe UI Emoji" font-size="20px" fill="#1e1e1e" text-anchor="middle" style="white-space: pre;" direction="ltr" dominant-baseline="text-before-edge">Identify all internal links</text><text x="121.63333129882812" y="25" font-family="Virgil, Segoe UI Emoji" font-size="20px" fill="#1e1e1e" text-anchor="middle" style="white-space: pre;" direction="ltr" dominant-baseline="text-before-edge">using regex</text></g><g stroke-linecap="round" transform="translate(278.9548221633527 1472.1993123383818) rotate(0 127.29125166879248 67.5)"><path d="M32 0 C93.07 -0.5, 151.34 -2.27, 222.58 0 M32 0 C79.28 1.08, 126.85 0, 222.58 0 M222.58 0 C242.96 0.4, 255.97 12.07, 254.58 32 M222.58 0 C245.27 0.34, 253.75 11.52, 254.58 32 M254.58 32 C252.56 54.54, 252.46 75.6, 254.58 103 M254.58 32 C255.4 55.14, 255.16 79.79, 254.58 103 M254.58 103 C255.37 123.57, 243.99 134.75, 222.58 135 M254.58 103 C253.55 125.07, 243.97 135.05, 222.58 135 M222.58 135 C146.38 133.9, 69.35 135.65, 32 135 M222.58 135 C157.4 134.17, 89.55 132.64, 32 135 M32 135 C10.55 135.55, 1.33 123.72, 0 103 M32 135 C9.6 133.53, -0.3 122.12, 0 103 M0 103 C-0.69 81.08, 0.98 60.58, 0 32 M0 103 C0.08 86.83, -0.15 69.14, 0 32 M0 32 C-1.56 11.48, 10.84 1.15, 32 0 M0 32 C-0.69 10, 8.78 -0.74, 32 0" stroke="#1e1e1e" stroke-width="2" fill="none"></path></g><g transform="translate(298.18773948155876 1502.1993123383818) rotate(0 108.05833435058594 37.5)"><text x="108.05833435058594" y="0" font-family="Virgil, Segoe UI Emoji" font-size="20px" fill="#1e1e1e" text-anchor="middle" style="white-space: pre;" direction="ltr" dominant-baseline="text-before-edge">Replace all markdown </text><text x="108.05833435058594" y="25" font-family="Virgil, Segoe UI Emoji" font-size="20px" fill="#1e1e1e" text-anchor="middle" style="white-space: pre;" direction="ltr" dominant-baseline="text-before-edge">inetrnal links with </text><text x="108.05833435058594" y="50" font-family="Virgil, Segoe UI Emoji" font-size="20px" fill="#1e1e1e" text-anchor="middle" style="white-space: pre;" direction="ltr" dominant-baseline="text-before-edge">onlyever internal links</text></g><g stroke-linecap="round" transform="translate(275.65908710120857 1679.3537025600926) rotate(0 127.29125166879248 67.5)"><path d="M32 0 C74.07 2.02, 113.71 2.21, 222.58 0 M32 0 C80.35 2.09, 129.24 2.43, 222.58 0 M222.58 0 C244.08 0.23, 255.21 10.94, 254.58 32 M222.58 0 C242.52 1.19, 252.8 10.96, 254.58 32 M254.58 32 C256.22 60.2, 255.69 87.43, 254.58 103 M254.58 32 C255.45 55.62, 253.96 79.04, 254.58 103 M254.58 103 C255.57 125.47, 243.66 135.41, 222.58 135 M254.58 103 C255.5 122.13, 243.85 134.25, 222.58 135 M222.58 135 C168.86 137.43, 115.91 136.83, 32 135 M222.58 135 C149.95 133.87, 76.78 133.44, 32 135 M32 135 C10.68 135.7, -0.05 124.69, 0 103 M32 135 C12.48 136.24, -2.19 124.46, 0 103 M0 103 C2.25 76.7, -0.37 50.59, 0 32 M0 103 C-0.79 82.84, -1.41 62.21, 0 32 M0 32 C-0.67 11.27, 8.72 -1.05, 32 0 M0 32 C-0.16 11.68, 11.44 0.39, 32 0" stroke="#1e1e1e" stroke-width="2" fill="none"></path></g><g transform="translate(281.0336746464659 1709.3537025600926) rotate(0 121.91666412353516 37.5)"><text x="121.91666412353516" y="0" font-family="Virgil, Segoe UI Emoji" font-size="20px" fill="#1e1e1e" text-anchor="middle" style="white-space: pre;" direction="ltr" dominant-baseline="text-before-edge">Return</text><text x="121.91666412353516" y="25" font-family="Virgil, Segoe UI Emoji" font-size="20px" fill="#1e1e1e" text-anchor="middle" style="white-space: pre;" direction="ltr" dominant-baseline="text-before-edge"> {content, internalLinks, </text><text x="121.91666412353516" y="50" font-family="Virgil, Segoe UI Emoji" font-size="20px" fill="#1e1e1e" text-anchor="middle" style="white-space: pre;" direction="ltr" dominant-baseline="text-before-edge">bannerImage}</text></g><g stroke-linecap="round" transform="translate(248.4601131502127 2226.7715675920695) rotate(0 127.29125166879248 67.5)"><path d="M32 0 C88.31 0.1, 139.57 -1.92, 222.58 0 M32 0 C93.51 0.74, 153.61 1.4, 222.58 0 M222.58 0 C245.2 1.61, 254.3 12.02, 254.58 32 M222.58 0 C243.57 0.16, 255.46 9.68, 254.58 32 M254.58 32 C255.22 53.3, 252.55 77.32, 254.58 103 M254.58 32 C255.71 54.58, 254.23 78.26, 254.58 103 M254.58 103 C254.43 122.56, 244.08 133.56, 222.58 135 M254.58 103 C252.31 122.9, 242.96 134.54, 222.58 135 M222.58 135 C157.61 135.55, 92.98 134.88, 32 135 M222.58 135 C178.89 132.88, 136.21 132.31, 32 135 M32 135 C11.71 134.46, -0.49 123.14, 0 103 M32 135 C10.01 135.98, -0.15 125.35, 0 103 M0 103 C1.13 79.72, 1.77 56.14, 0 32 M0 103 C-1.24 77.31, 0.07 49.54, 0 32 M0 32 C-1.84 8.83, 12.52 -0.56, 32 0 M0 32 C1.37 10.59, 10.29 0.32, 32 0" stroke="#1e1e1e" stroke-width="2" fill="none"></path></g><g transform="translate(265.76803504605596 2269.2715675920695) rotate(0 109.98332977294922 25)"><text x="109.98332977294922" y="0" font-family="Virgil, Segoe UI Emoji" font-size="20px" fill="#1e1e1e" text-anchor="middle" style="white-space: pre;" direction="ltr" dominant-baseline="text-before-edge">Prepare json for API </text><text x="109.98332977294922" y="25" font-family="Virgil, Segoe UI Emoji" font-size="20px" fill="#1e1e1e" text-anchor="middle" style="white-space: pre;" direction="ltr" dominant-baseline="text-before-edge">request payload</text></g><g stroke-linecap="round" transform="translate(115.40748091604246 1977.1715112937595) rotate(0 127.29125166879248 67.5)"><path d="M32 0 C91.89 -1.67, 155.05 1.03, 222.58 0 M32 0 C70.56 -0.52, 109.29 -1.34, 222.58 0 M222.58 0 C243.05 0.6, 252.94 11.75, 254.58 32 M222.58 0 C244.12 -0.61, 255.37 8.51, 254.58 32 M254.58 32 C253.39 47.95, 254.52 60.03, 254.58 103 M254.58 32 C254.02 50.65, 253.99 69.46, 254.58 103 M254.58 103 C256.22 122.66, 242.45 134.25, 222.58 135 M254.58 103 C252.44 125.31, 242.08 133.65, 222.58 135 M222.58 135 C164.69 133.46, 110.21 133.89, 32 135 M222.58 135 C153.13 133.35, 85.25 133.67, 32 135 M32 135 C12.2 134.24, -1.4 123.63, 0 103 M32 135 C12.15 136.26, 0.32 125.24, 0 103 M0 103 C1.46 75.04, -1.27 49.68, 0 32 M0 103 C0.93 87.86, 0.49 70.79, 0 32 M0 32 C-1.98 12.6, 9.21 0.76, 32 0 M0 32 C-2.3 9.57, 9.15 0.57, 32 0" stroke="#1e1e1e" stroke-width="2" fill="none"></path></g><g transform="translate(123.890398234249 1994.6715112937595) rotate(0 118.80833435058594 50)"><text x="118.80833435058594" y="0" font-family="Virgil, Segoe UI Emoji" font-size="20px" fill="#1e1e1e" text-anchor="middle" style="white-space: pre;" direction="ltr" dominant-baseline="text-before-edge">Parse content (breaking</text><text x="118.80833435058594" y="25" font-family="Virgil, Segoe UI Emoji" font-size="20px" fill="#1e1e1e" text-anchor="middle" style="white-space: pre;" direction="ltr" dominant-baseline="text-before-edge">down content to section</text><text x="118.80833435058594" y="50" font-family="Virgil, Segoe UI Emoji" font-size="20px" fill="#1e1e1e" text-anchor="middle" style="white-space: pre;" direction="ltr" dominant-baseline="text-before-edge">based on heading </text><text x="118.80833435058594" y="75" font-family="Virgil, Segoe UI Emoji" font-size="20px" fill="#1e1e1e" text-anchor="middle" style="white-space: pre;" direction="ltr" dominant-baseline="text-before-edge">hierarchy)</text></g><g stroke-linecap="round" transform="translate(507.2470847934278 1975.0543335619345) rotate(0 127.29125166879248 67.5)"><path d="M32 0 C90.41 -0.54, 151.3 -0.75, 222.58 0 M32 0 C81.71 0.1, 131.48 0.37, 222.58 0 M222.58 0 C242.66 0.52, 253.59 9.6, 254.58 32 M222.58 0 C243.26 0.67, 252.71 12.91, 254.58 32 M254.58 32 C254.51 46.69, 255.03 60.61, 254.58 103 M254.58 32 C253.63 56.41, 253.09 78.59, 254.58 103 M254.58 103 C254.66 125.28, 242.76 134.09, 222.58 135 M254.58 103 C255.8 125.93, 242.2 135.79, 222.58 135 M222.58 135 C161.64 135.32, 104.88 134.49, 32 135 M222.58 135 C157.82 135.67, 92.2 134.82, 32 135 M32 135 C9.94 136.84, -0.41 124.83, 0 103 M32 135 C8.67 133.29, -0.35 124.28, 0 103 M0 103 C1.5 86.03, -0.76 67.23, 0 32 M0 103 C0.67 83.42, 0.27 64.03, 0 32 M0 32 C-1.78 10.52, 9.83 -0.94, 32 0 M0 32 C-0.66 9.22, 9.63 1.23, 32 0" stroke="#1e1e1e" stroke-width="2" fill="none"></path></g><g transform="translate(560.9966723386856 2030.0543335619345) rotate(0 73.54166412353516 12.5)"><text x="73.54166412353516" y="0" font-family="Virgil, Segoe UI Emoji" font-size="20px" fill="#1e1e1e" text-anchor="middle" style="white-space: pre;" direction="ltr" dominant-baseline="text-before-edge">Parse headings</text></g></svg>